<svg width="190" height="21" viewBox="0 0 190 21" fill="none" xmlns="http://www.w3.org/2000/svg">
<path d="M7.098 20.156L2.47 6.142C2.29667 5.63933 2.158 5.18 2.054 4.764C1.96733 4.348 1.924 4.00133 1.924 3.724C1.59467 3.74133 1.3 3.75867 1.04 3.776C0.797333 3.776 0.563333 3.78467 0.338 3.802V1.8H8.008V3.516C7.36667 3.49867 6.89 3.62 6.578 3.88C6.28333 4.14 6.24867 4.66867 6.474 5.466C6.734 6.454 6.994 7.442 7.254 8.43C7.514 9.418 7.774 10.406 8.034 11.394C8.19 11.9833 8.32867 12.538 8.45 13.058C8.58867 13.578 8.736 14.254 8.892 15.086H8.918C8.98733 14.8433 9.09133 14.4707 9.23 13.968C9.36867 13.4653 9.516 12.928 9.672 12.356C9.84533 11.7667 9.99267 11.238 10.114 10.77C10.2527 10.2847 10.348 9.94667 10.4 9.756C10.7987 8.42133 11.1973 7.09533 11.596 5.778C12.012 4.44333 12.4193 3.11733 12.818 1.8H15.158C15.6607 3.39467 16.1547 4.98933 16.64 6.584C17.1427 8.17867 17.6367 9.77333 18.122 11.368C18.3127 11.9573 18.4773 12.5727 18.616 13.214C18.772 13.838 18.9193 14.4707 19.058 15.112H19.084C19.24 14.5573 19.396 13.9853 19.552 13.396C19.7253 12.7893 19.8987 12.1653 20.072 11.524C20.3147 10.6053 20.5573 9.69533 20.8 8.794C21.0427 7.89267 21.2853 6.99133 21.528 6.09C21.632 5.674 21.7707 5.24933 21.944 4.816C22.1173 4.36533 22.334 4.00133 22.594 3.724C22.3167 3.74133 21.9613 3.75867 21.528 3.776C21.0947 3.776 20.7827 3.78467 20.592 3.802V1.8H26.442V3.516C25.8527 3.53333 25.3327 3.75 24.882 4.166C24.4313 4.56467 24.0327 5.27533 23.686 6.298C22.9927 8.60333 22.2907 10.9087 21.58 13.214C20.8693 15.5193 20.1587 17.8333 19.448 20.156H17.134L14.066 10.848C13.8407 10.172 13.65 9.51333 13.494 8.872C13.3553 8.21333 13.2167 7.58933 13.078 7C12.9913 7.58933 12.8873 8.16133 12.766 8.716C12.6447 9.25333 12.4973 9.81667 12.324 10.406L9.36 20.156H7.098ZM26.8121 18.31C27.5228 18.31 27.9561 18.102 28.1121 17.686C28.2681 17.2527 28.3461 16.6893 28.3461 15.996V11.68C28.3461 11.368 28.3548 11.0127 28.3721 10.614C28.3894 10.198 28.4154 9.79933 28.4501 9.418C28.1728 9.43533 27.8434 9.45267 27.4621 9.47C27.0981 9.47 26.8208 9.47867 26.6301 9.496V7.52C27.8261 7.52 28.7448 7.43333 29.3861 7.26C30.0448 7.08667 30.4608 6.91333 30.6341 6.74H32.0381V15.814C32.0381 16.0567 32.0294 16.4033 32.0121 16.854C31.9948 17.2873 31.9688 17.7033 31.9341 18.102C32.2114 18.0673 32.5148 18.05 32.8441 18.05C33.1908 18.0327 33.4508 18.024 33.6241 18.024V20H26.8121V18.31ZM30.0621 4.686C29.4728 4.686 28.9874 4.478 28.6061 4.062C28.2248 3.646 28.0341 3.14333 28.0341 2.554C28.0341 1.96467 28.2334 1.462 28.6321 1.046C29.0308 0.629999 29.4988 0.421999 30.0361 0.421999C30.5908 0.421999 31.0501 0.629999 31.4141 1.046C31.7954 1.462 31.9861 1.96467 31.9861 2.554C31.9861 3.14333 31.8128 3.646 31.4661 4.062C31.1194 4.478 30.6514 4.686 30.0621 4.686ZM41.298 20.416C40.5526 20.416 39.8246 20.3207 39.114 20.13C38.4033 19.9393 37.8486 19.6967 37.45 19.402L37.502 20.182H35.526L35.422 15.71H37.112C37.1986 16.5073 37.6146 17.1833 38.36 17.738C39.1053 18.2753 40.0326 18.544 41.142 18.544C41.5753 18.544 41.9826 18.44 42.364 18.232C42.7453 18.024 42.936 17.6947 42.936 17.244C42.9186 16.7413 42.65 16.3687 42.13 16.126C41.6273 15.8833 40.8906 15.5713 39.92 15.19C39.3826 14.982 38.8366 14.7653 38.282 14.54C37.7446 14.3147 37.242 14.046 36.774 13.734C36.3233 13.4047 35.9593 13.006 35.682 12.538C35.4046 12.0527 35.266 11.4633 35.266 10.77C35.266 10.094 35.4306 9.43533 35.76 8.794C36.1066 8.15267 36.644 7.624 37.372 7.208C38.1 6.792 39.0273 6.584 40.154 6.584C40.622 6.584 41.1506 6.662 41.74 6.818C42.3466 6.95667 42.858 7.17333 43.274 7.468V6.714H45.25V11.316H43.56C43.404 10.4147 43.0053 9.704 42.364 9.184C41.7226 8.664 40.934 8.404 39.998 8.404C39.5646 8.404 39.166 8.508 38.802 8.716C38.4553 8.924 38.282 9.27933 38.282 9.782C38.282 10.1807 38.4206 10.5013 38.698 10.744C38.9753 10.9693 39.3566 11.16 39.842 11.316C40.3273 11.472 40.8646 11.654 41.454 11.862C42.338 12.1567 43.118 12.5033 43.794 12.902C44.4873 13.3007 45.0333 13.786 45.432 14.358C45.8306 14.9127 46.03 15.5973 46.03 16.412C46.03 17.3133 45.8046 18.0587 45.354 18.648C44.9033 19.2373 44.314 19.6793 43.586 19.974C42.8753 20.2687 42.1126 20.416 41.298 20.416ZM52.9551 20.416C51.9151 20.416 50.9964 20.1473 50.1991 19.61C49.4191 19.0727 48.8038 18.31 48.3531 17.322C47.9198 16.334 47.7031 15.1727 47.7031 13.838C47.7031 12.434 47.9718 11.186 48.5091 10.094C49.0464 9.002 49.8004 8.144 50.7711 7.52C51.7418 6.896 52.8684 6.584 54.1511 6.584C54.6191 6.584 55.0351 6.636 55.3991 6.74C55.7804 6.82667 56.1358 6.93067 56.4651 7.052V5.336C56.4651 5.09333 56.4738 4.74667 56.4911 4.296C56.5084 3.84533 56.5344 3.42933 56.5691 3.048C56.2918 3.06533 55.9624 3.08267 55.5811 3.1C55.1998 3.11733 54.9138 3.126 54.7231 3.126V1.15C55.9364 1.15 56.8638 1.06333 57.5051 0.89C58.1464 0.716665 58.5538 0.543332 58.7271 0.369999H60.1311V15.814C60.1311 16.0567 60.1224 16.4033 60.1051 16.854C60.0878 17.2873 60.0618 17.7033 60.0271 18.102C60.3218 18.0673 60.6338 18.05 60.9631 18.05C61.2924 18.0327 61.5438 18.024 61.7171 18.024V20H56.7771C56.7598 19.8093 56.7338 19.61 56.6991 19.402C56.6818 19.194 56.6558 18.9947 56.6211 18.804C56.0491 19.3933 55.4598 19.8093 54.8531 20.052C54.2464 20.2947 53.6138 20.416 52.9551 20.416ZM54.3071 18.05C54.7578 18.05 55.1738 17.9373 55.5551 17.712C55.9364 17.4693 56.2398 17.166 56.4651 16.802V9.002C56.2918 8.86333 56.0318 8.75067 55.6851 8.664C55.3384 8.56 54.9831 8.508 54.6191 8.508C53.8218 8.52533 53.1978 8.77667 52.7471 9.262C52.2964 9.74733 51.9758 10.3627 51.7851 11.108C51.6118 11.8533 51.5251 12.6333 51.5251 13.448C51.5251 14.176 51.6118 14.8953 51.7851 15.606C51.9758 16.3167 52.2704 16.906 52.6691 17.374C53.0851 17.8247 53.6311 18.05 54.3071 18.05ZM69.7954 20.416C68.5474 20.416 67.4207 20.1473 66.4154 19.61C65.41 19.0727 64.6127 18.31 64.0234 17.322C63.4514 16.3167 63.1654 15.138 63.1654 13.786C63.1654 12.3473 63.46 11.0907 64.0494 10.016C64.656 8.924 65.4534 8.08333 66.4414 7.494C67.4467 6.88733 68.5387 6.584 69.7174 6.584C70.9654 6.584 72.0834 6.85267 73.0714 7.39C74.0594 7.92733 74.8394 8.69867 75.4114 9.704C75.9834 10.692 76.2694 11.8793 76.2694 13.266C76.2694 14.722 75.992 15.9873 75.4374 17.062C74.8827 18.1367 74.12 18.9687 73.1494 19.558C72.1787 20.13 71.0607 20.416 69.7954 20.416ZM69.8994 18.57C70.5927 18.5527 71.1127 18.31 71.4594 17.842C71.8234 17.374 72.0747 16.7847 72.2134 16.074C72.352 15.3633 72.4214 14.644 72.4214 13.916C72.4214 13.2747 72.3694 12.6247 72.2654 11.966C72.1787 11.3073 72.0314 10.7093 71.8234 10.172C71.6154 9.63467 71.3294 9.20133 70.9654 8.872C70.6187 8.54267 70.1854 8.38667 69.6654 8.404C68.9894 8.42133 68.452 8.664 68.0534 9.132C67.672 9.6 67.3947 10.1893 67.2214 10.9C67.0654 11.5933 66.9874 12.3213 66.9874 13.084C66.9874 13.968 67.0827 14.8347 67.2734 15.684C67.464 16.5333 67.7674 17.2353 68.1834 17.79C68.6167 18.3273 69.1887 18.5873 69.8994 18.57ZM78.1519 20V18.31C78.8626 18.31 79.2959 18.102 79.4519 17.686C79.6079 17.2527 79.6859 16.6893 79.6859 15.996V11.628C79.6859 11.316 79.6946 10.9693 79.7119 10.588C79.7293 10.1893 79.7553 9.79933 79.7899 9.418C79.5126 9.43533 79.1833 9.45267 78.8019 9.47C78.4379 9.47 78.1606 9.47867 77.9699 9.496V7.52C79.1659 7.52 80.0846 7.43333 80.7259 7.26C81.3846 7.08667 81.8006 6.91333 81.9739 6.74H83.2479C83.2826 6.91333 83.2999 7.13 83.2999 7.39C83.3173 7.65 83.3346 7.86667 83.3519 8.04C83.9413 7.58933 84.5739 7.234 85.2499 6.974C85.9433 6.714 86.5933 6.584 87.1999 6.584C87.9973 6.584 88.6559 6.73133 89.1759 7.026C89.6959 7.30333 90.1119 7.728 90.4239 8.3C91.0479 7.78 91.7326 7.364 92.4779 7.052C93.2406 6.74 93.9686 6.584 94.6619 6.584C96.0659 6.584 97.1233 6.99133 97.8339 7.806C98.5619 8.60333 98.9259 9.99867 98.9259 11.992V15.814C98.9259 16.0567 98.9173 16.4033 98.8999 16.854C98.8826 17.2873 98.8566 17.7033 98.8219 18.102C99.0993 18.0673 99.4026 18.05 99.7319 18.05C100.079 18.0327 100.339 18.024 100.512 18.024V20H93.9339V18.31C94.5406 18.31 94.9046 18.102 95.0259 17.686C95.1646 17.2527 95.2339 16.6893 95.2339 15.996V12.018C95.2166 10.8913 95.0259 10.1113 94.6619 9.678C94.3153 9.24467 93.8473 9.01933 93.2579 9.002C92.8073 8.98467 92.3826 9.06267 91.9839 9.236C91.6026 9.40933 91.2559 9.61733 90.9439 9.86C91.0999 10.5533 91.1779 11.3767 91.1779 12.33V15.814C91.1779 16.0567 91.1693 16.4033 91.1519 16.854C91.1346 17.2873 91.1086 17.7033 91.0739 18.102C91.3513 18.0673 91.6546 18.05 91.9839 18.05C92.3133 18.0327 92.5733 18.024 92.7639 18.024V20H86.0559V18.31C86.7146 18.31 87.1133 18.102 87.2519 17.686C87.4079 17.2527 87.4859 16.6893 87.4859 15.996L87.4599 11.94C87.4599 10.8133 87.2953 10.042 86.9659 9.626C86.6366 9.21 86.1773 8.99333 85.5879 8.976C85.1546 8.976 84.7473 9.07133 84.3659 9.262C84.0019 9.45267 83.6726 9.678 83.3779 9.938V15.814C83.3779 16.0567 83.3693 16.4033 83.3519 16.854C83.3346 17.2873 83.3086 17.7033 83.2739 18.102C83.5513 18.0673 83.8373 18.05 84.1319 18.05C84.4266 18.0327 84.6606 18.024 84.8339 18.024V20H78.1519ZM119.638 7.624C119.413 6.18533 118.91 5.09333 118.13 4.348C117.35 3.60267 116.353 3.23867 115.14 3.256C114.395 3.256 113.736 3.464 113.164 3.88C112.609 4.296 112.332 4.83333 112.332 5.492C112.332 6.28933 112.679 6.948 113.372 7.468C114.065 7.988 115.123 8.54267 116.544 9.132C117.203 9.392 117.879 9.69533 118.572 10.042C119.265 10.3887 119.907 10.8047 120.496 11.29C121.085 11.758 121.562 12.3127 121.926 12.954C122.29 13.578 122.472 14.3147 122.472 15.164C122.472 16.1867 122.195 17.0967 121.64 17.894C121.085 18.6913 120.305 19.3153 119.3 19.766C118.312 20.1993 117.151 20.416 115.816 20.416C115.123 20.416 114.369 20.3033 113.554 20.078C112.757 19.87 112.003 19.558 111.292 19.142L111.37 20.234H109.368V14.15H111.084C111.327 15.606 111.881 16.7067 112.748 17.452C113.632 18.18 114.681 18.544 115.894 18.544C116.813 18.544 117.558 18.3013 118.13 17.816C118.719 17.3307 119.014 16.7587 119.014 16.1C119.014 15.4933 118.797 14.9907 118.364 14.592C117.948 14.1933 117.419 13.8553 116.778 13.578C116.154 13.3007 115.513 13.032 114.854 12.772C113.745 12.3213 112.739 11.8187 111.838 11.264C110.954 10.692 110.252 10.016 109.732 9.236C109.212 8.43867 108.952 7.47667 108.952 6.35C108.952 5.81267 109.056 5.258 109.264 4.686C109.472 4.09667 109.81 3.55933 110.278 3.074C110.746 2.57133 111.37 2.164 112.15 1.852C112.93 1.54 113.892 1.384 115.036 1.384C115.729 1.384 116.483 1.488 117.298 1.696C118.13 1.904 118.841 2.216 119.43 2.632L119.326 1.566H121.354V7.624H119.638ZM130.575 20.416C129.414 20.416 128.348 20.156 127.377 19.636C126.406 19.116 125.626 18.362 125.037 17.374C124.465 16.386 124.179 15.19 124.179 13.786C124.179 12.4687 124.465 11.2727 125.037 10.198C125.609 9.106 126.398 8.23067 127.403 7.572C128.426 6.91333 129.604 6.584 130.939 6.584C132.048 6.584 132.967 6.75733 133.695 7.104C134.44 7.43333 134.995 7.87533 135.359 8.43C135.74 8.96733 135.931 9.53933 135.931 10.146C135.931 10.6487 135.775 11.0993 135.463 11.498C135.168 11.8793 134.744 12.0787 134.189 12.096C133.53 12.1133 133.071 11.9313 132.811 11.55C132.551 11.1513 132.421 10.77 132.421 10.406C132.421 10.25 132.447 10.068 132.499 9.86C132.551 9.63467 132.629 9.43533 132.733 9.262C132.542 8.88067 132.239 8.638 131.823 8.534C131.407 8.43 131.078 8.38667 130.835 8.404C130.003 8.456 129.318 8.872 128.781 9.652C128.244 10.432 127.975 11.5587 127.975 13.032C127.975 13.8987 128.079 14.7133 128.287 15.476C128.512 16.2213 128.876 16.8367 129.379 17.322C129.882 17.8073 130.558 18.0673 131.407 18.102C132.135 18.1193 132.846 17.946 133.539 17.582C134.232 17.218 134.822 16.724 135.307 16.1L136.503 17.27C135.879 18.1367 135.229 18.7953 134.553 19.246C133.877 19.6967 133.201 20 132.525 20.156C131.866 20.3293 131.216 20.416 130.575 20.416ZM145.644 18.31C146.372 18.31 146.814 18.102 146.97 17.686C147.126 17.2527 147.204 16.6893 147.204 15.996L147.178 12.304C147.178 10.0853 146.476 8.976 145.072 8.976C144.639 8.976 144.205 9.07133 143.772 9.262C143.356 9.45267 143.001 9.678 142.706 9.938V15.814C142.706 16.0567 142.697 16.4033 142.68 16.854C142.663 17.2873 142.637 17.7033 142.602 18.102C142.897 18.0673 143.209 18.05 143.538 18.05C143.867 18.0327 144.119 18.024 144.292 18.024V20H137.48V18.31C138.208 18.31 138.641 18.102 138.78 17.686C138.936 17.2527 139.014 16.6893 139.014 15.996V5.31C139.014 4.998 139.023 4.64267 139.04 4.244C139.057 3.828 139.083 3.42933 139.118 3.048C138.841 3.06533 138.511 3.08267 138.13 3.1C137.766 3.1 137.489 3.10867 137.298 3.126V1.15C138.511 1.15 139.439 1.06333 140.08 0.89C140.721 0.716665 141.129 0.543332 141.302 0.369999H142.706V8.04C143.053 7.76267 143.451 7.52 143.902 7.312C144.353 7.08667 144.812 6.91333 145.28 6.792C145.748 6.65333 146.155 6.584 146.502 6.584C148.097 6.584 149.223 7.04333 149.882 7.962C150.541 8.86333 150.879 10.3193 150.896 12.33V15.814C150.896 16.0567 150.887 16.4033 150.87 16.854C150.853 17.2873 150.827 17.7033 150.792 18.102C151.069 18.0673 151.373 18.05 151.702 18.05C152.031 18.0327 152.291 18.024 152.482 18.024V20H145.644V18.31ZM160.415 20.416C159.167 20.416 158.04 20.1473 157.035 19.61C156.029 19.0727 155.232 18.31 154.643 17.322C154.071 16.3167 153.785 15.138 153.785 13.786C153.785 12.3473 154.079 11.0907 154.669 10.016C155.275 8.924 156.073 8.08333 157.061 7.494C158.066 6.88733 159.158 6.584 160.337 6.584C161.585 6.584 162.703 6.85267 163.691 7.39C164.679 7.92733 165.459 8.69867 166.031 9.704C166.603 10.692 166.889 11.8793 166.889 13.266C166.889 14.722 166.611 15.9873 166.057 17.062C165.502 18.1367 164.739 18.9687 163.769 19.558C162.798 20.13 161.68 20.416 160.415 20.416ZM160.519 18.57C161.212 18.5527 161.732 18.31 162.079 17.842C162.443 17.374 162.694 16.7847 162.833 16.074C162.971 15.3633 163.041 14.644 163.041 13.916C163.041 13.2747 162.989 12.6247 162.885 11.966C162.798 11.3073 162.651 10.7093 162.443 10.172C162.235 9.63467 161.949 9.20133 161.585 8.872C161.238 8.54267 160.805 8.38667 160.285 8.404C159.609 8.42133 159.071 8.664 158.673 9.132C158.291 9.6 158.014 10.1893 157.841 10.9C157.685 11.5933 157.607 12.3213 157.607 13.084C157.607 13.968 157.702 14.8347 157.893 15.684C158.083 16.5333 158.387 17.2353 158.803 17.79C159.236 18.3273 159.808 18.5873 160.519 18.57ZM175.141 20.416C173.893 20.416 172.766 20.1473 171.761 19.61C170.756 19.0727 169.958 18.31 169.369 17.322C168.797 16.3167 168.511 15.138 168.511 13.786C168.511 12.3473 168.806 11.0907 169.395 10.016C170.002 8.924 170.799 8.08333 171.787 7.494C172.792 6.88733 173.884 6.584 175.063 6.584C176.311 6.584 177.429 6.85267 178.417 7.39C179.405 7.92733 180.185 8.69867 180.757 9.704C181.329 10.692 181.615 11.8793 181.615 13.266C181.615 14.722 181.338 15.9873 180.783 17.062C180.228 18.1367 179.466 18.9687 178.495 19.558C177.524 20.13 176.406 20.416 175.141 20.416ZM175.245 18.57C175.938 18.5527 176.458 18.31 176.805 17.842C177.169 17.374 177.42 16.7847 177.559 16.074C177.698 15.3633 177.767 14.644 177.767 13.916C177.767 13.2747 177.715 12.6247 177.611 11.966C177.524 11.3073 177.377 10.7093 177.169 10.172C176.961 9.63467 176.675 9.20133 176.311 8.872C175.964 8.54267 175.531 8.38667 175.011 8.404C174.335 8.42133 173.798 8.664 173.399 9.132C173.018 9.6 172.74 10.1893 172.567 10.9C172.411 11.5933 172.333 12.3213 172.333 13.084C172.333 13.968 172.428 14.8347 172.619 15.684C172.81 16.5333 173.113 17.2353 173.529 17.79C173.962 18.3273 174.534 18.5873 175.245 18.57ZM182.98 18.31C183.708 18.31 184.141 18.102 184.28 17.686C184.436 17.2527 184.514 16.6893 184.514 15.996V5.31C184.514 4.998 184.523 4.64267 184.54 4.244C184.557 3.828 184.583 3.42933 184.618 3.048C184.341 3.06533 184.011 3.08267 183.63 3.1C183.266 3.1 182.989 3.10867 182.798 3.126V1.15C184.011 1.15 184.939 1.06333 185.58 0.89C186.221 0.716665 186.629 0.543332 186.802 0.369999H188.206V15.814C188.206 16.0567 188.197 16.4033 188.18 16.854C188.163 17.2873 188.137 17.7033 188.102 18.102C188.397 18.0673 188.709 18.05 189.038 18.05C189.367 18.0327 189.619 18.024 189.792 18.024V20H182.98V18.31Z" fill="#F9F871"/>
</svg>
