<svg width="267" height="233" viewBox="0 0 267 233" fill="none" xmlns="http://www.w3.org/2000/svg">
<path d="M-3.51677 169.823C-3.51677 169.823 -2.41177 169.655 -0.336897 169.346C0.716283 169.205 2.07324 169.09 3.63301 168.924C5.1809 168.843 6.96104 168.681 8.94444 168.65C12.916 168.516 17.7132 168.596 23.1562 168.713C28.5997 168.796 34.7155 168.968 41.2743 168.337C44.56 168.061 47.9386 167.51 51.3654 166.676C52.1989 166.457 53.0405 166.24 53.8881 166.015C54.7603 165.723 55.6375 165.428 56.5223 165.129C57.4086 164.832 58.2998 164.532 59.1987 164.228C59.6481 164.076 60.0975 163.924 60.5509 163.773C61.0028 163.62 61.4123 163.41 61.8472 163.233C63.5675 162.485 65.3122 161.732 67.0757 160.966C68.7858 160.049 70.5161 159.121 72.2654 158.185C72.699 157.941 73.1499 157.728 73.5743 157.462L74.8384 156.645C75.685 156.1 76.5341 155.552 77.3882 155.002C78.2225 154.447 79.1473 153.903 79.917 153.334C80.7513 152.715 81.617 152.097 82.3492 151.446C85.4576 148.886 88.2254 145.707 90.766 142.304C93.3135 138.882 95.6806 135.213 98.2781 131.605C100.839 127.969 103.777 124.52 106.867 121.272C109.953 118.01 113.196 114.875 116.598 111.911C123.404 106.031 130.863 100.678 139.256 97.4499C143.444 95.8813 147.91 94.9173 152.36 95.1748C156.728 95.4892 160.932 96.3085 165.066 96.5601C169.194 96.8251 173.261 96.2928 177.002 94.9322C180.775 93.5357 184.261 91.7749 187.656 89.9727C191.035 88.1493 194.323 86.3418 197.594 84.7619C198.423 84.3838 199.245 84.0101 200.055 83.6397C200.866 83.2588 201.713 82.9812 202.527 82.6523C204.153 81.9853 205.805 81.5018 207.406 81.0005C213.88 79.0953 219.944 78.0079 225.273 76.8578C230.607 75.7323 235.22 74.5693 238.92 73.2893C242.633 72.0514 245.404 70.697 247.296 69.7992C249.142 68.8038 250.126 68.2692 250.126 68.2692C250.126 68.2692 249.148 68.8139 247.315 69.8384C245.438 70.7614 242.678 72.1569 238.973 73.4463C235.281 74.7793 230.674 76.0057 225.349 77.2037C220.037 78.4243 213.979 79.5986 207.591 81.5716C205.999 82.0945 204.359 82.5982 202.764 83.2776C201.967 83.6133 201.136 83.8951 200.34 84.2842C199.541 84.6618 198.731 85.0452 197.92 85.43C194.694 87.0371 191.448 88.8812 188.083 90.7533C184.713 92.6048 181.154 94.4586 177.362 95.9161C173.522 97.3777 169.255 97.995 165.002 97.7753C160.751 97.571 156.541 96.8055 152.289 96.5584C148.091 96.3705 143.84 97.3411 139.815 98.9063C131.748 102.13 124.487 107.471 117.868 113.353C114.56 116.313 111.4 119.447 108.405 122.704C105.395 125.956 102.603 129.32 100.138 132.925C97.6323 136.5 95.3068 140.212 92.7458 143.755C90.1679 147.298 87.3543 150.648 84.0145 153.476C83.1803 154.229 82.3488 154.83 81.5232 155.465C80.6285 156.142 79.767 156.657 78.8936 157.255C78.0241 157.831 77.1571 158.405 76.2966 158.979L75.0074 159.834C74.5747 160.114 74.113 160.344 73.6684 160.597C71.8731 161.593 70.0951 162.573 68.3401 163.546C66.4944 164.373 64.6702 165.191 62.8702 165.999C62.4191 166.189 61.9718 166.42 61.5228 166.579C61.0698 166.736 60.6208 166.895 60.1757 167.054C59.2787 167.368 58.3922 167.681 57.5092 167.99C56.6303 168.299 55.7552 168.61 54.8889 168.912L54.8086 168.941L54.6667 168.986L54.4948 169.032L54.1552 169.124L53.4747 169.312C53.0263 169.437 52.5764 169.559 52.1264 169.681C48.537 170.605 44.9986 171.228 41.6017 171.561C34.7957 172.305 28.5724 172.209 23.1137 172.199C17.653 172.156 12.9379 172.142 9.08272 172.327C7.14883 172.379 5.44918 172.558 3.95836 172.657C2.49961 172.835 1.27536 172.947 0.251438 173.099C-1.82043 173.436 -2.92213 173.615 -2.92213 173.615L-3.51677 169.823Z" fill="#D3ECE8"/>
<path d="M31.2072 168.614C31.2072 168.614 31.5689 168.519 32.2451 168.347C32.5837 168.259 32.9994 168.153 33.4893 168.024C33.9442 167.876 34.4642 167.707 35.0509 167.519C36.2226 167.118 37.6649 166.557 39.2575 165.809C40.062 165.452 40.8808 164.986 41.7685 164.54C42.617 164.027 43.5497 163.549 44.4563 162.938C46.314 161.788 48.2275 160.375 50.1774 158.786C52.1259 157.194 54.0795 155.385 55.9681 153.381C57.8661 151.382 59.6919 149.2 61.4092 146.86C63.1179 144.527 64.7097 142.027 66.1808 139.469C69.0969 134.331 71.5125 128.885 73.0281 123.549C74.5614 118.226 75.1749 113.007 74.7755 108.582C74.587 106.371 74.161 104.372 73.6226 102.648C73.0471 100.936 72.3978 99.4917 71.7506 98.3649C71.1048 97.2406 70.5338 96.3853 70.0961 95.8424C69.6747 95.2868 69.4472 94.9918 69.4472 94.9918C69.4472 94.9918 69.6833 95.2785 70.1235 95.8199C70.5762 96.3541 71.1735 97.1908 71.8563 98.3038C72.5432 99.4178 73.2401 100.852 73.8754 102.563C74.4711 104.287 74.9657 106.3 75.2236 108.538C75.7627 113.014 75.3027 118.335 73.9073 123.786C72.5337 129.252 70.2496 134.851 67.4428 140.16C66.0229 142.813 64.4871 145.398 62.8013 147.852C61.1212 150.292 59.3057 152.602 57.4198 154.715C55.5382 156.835 53.5775 158.766 51.6071 160.471C49.6397 162.181 47.6953 163.71 45.7883 164.972C44.8579 165.64 43.8959 166.172 43.0191 166.735C42.0994 167.236 41.2509 167.749 40.4092 168.158C38.7391 169.005 37.2427 169.641 35.9624 170.121C35.3131 170.352 34.7352 170.554 34.2314 170.735C33.7423 170.876 33.3288 170.997 32.992 171.094C32.3199 171.291 31.9626 171.393 31.9626 171.393L31.2072 168.614Z" fill="#D3ECE8"/>
<path d="M242.739 71.5541C249.999 65.1706 239.227 57.6671 237.816 51.681C235.044 55.1143 231.321 62.2152 232.005 66.8891C232.711 71.7414 238.197 75.0795 242.471 71.7825" fill="#D3ECE8"/>
<path d="M228.479 76.8905C226.59 87.635 238.344 87.4351 244.894 90.6089C249.121 81.1124 236.076 70.0035 228.18 77.5363" fill="#D3ECE8"/>
<path d="M76.5921 100.098C82.8611 93.3063 71.8744 87.2394 69.9381 81.6873C67.644 85.2273 64.8076 92.3466 65.9194 96.7265C67.0734 101.267 72.6229 103.9 76.3552 100.339" fill="#D3ECE8"/>
<path d="M29.254 167.039C32.2948 158.308 19.7995 157.13 15.8111 152.81C15.1173 156.97 15.3563 164.63 18.1235 168.202C20.9913 171.907 27.131 172.108 29.136 167.352" fill="#D3ECE8"/>
<path d="M186.493 90.6509C194.516 88.5496 195.889 95.3234 197.367 101.972C188.185 104.451 185.127 97.2467 185.939 89.8024" fill="#D3ECE8"/>
<path d="M172.975 96.2972C182.604 97.1564 183.041 103.782 189.069 109.389C185.389 110.459 177.162 111.899 173.895 108.888C170.452 105.716 172.888 100.369 171.205 96.5977" fill="#D3ECE8"/>
<path d="M208.279 82.1518C205.575 91.8159 217.879 92.0103 222.989 95.2667C221.901 84.8744 216.031 84.8495 208.216 81.5199" fill="#D3ECE8"/>
<path d="M195.431 88.1326C205.235 86.5743 198.5 76.3338 201.166 71.3739C196.289 72.6492 186.278 85.4344 195.269 87.5146" fill="#D3ECE8"/>
<path d="M74.6295 113.994C68.2852 111.618 63.6337 119.489 57.6747 119.304C52.2626 119.136 46.5025 113.946 42.8321 110.868C54.4755 102.854 63.1092 109.87 74.1904 114.187" fill="#D3ECE8"/>
<path d="M30.9179 170.264C34.8345 164.737 28.407 158.233 30.1095 152.517C31.6535 147.329 38.1428 143.082 42.0531 140.317C46.8337 153.616 37.8466 160.178 30.8451 169.789" fill="#D3ECE8"/>
<path d="M70.4231 129.813C74.3875 125.322 98.7003 130.627 92.7759 117.109C86.9167 103.744 72.906 122.424 71.5397 128.903" fill="#D3ECE8"/>
<path d="M92.3288 174.157C95.1605 183.674 106.792 176.854 112.981 178.111C110.972 174.051 105.954 167.529 101.302 166.153C96.4765 164.727 90.9967 168.407 92.2349 173.809" fill="#D3ECE8"/>
<path d="M86.0064 159.671C92.1064 165.968 97.5241 158.231 102.68 155.466C98.5001 148.238 85.1156 151.481 86.2877 160.17" fill="#D3ECE8"/>
<path d="M72.8384 157.572C78.3267 165.182 84.8873 156.04 90.7974 157.995C86.1011 158.817 83.1482 162.298 78.1271 161.766C84.5242 164.739 87.293 170.489 94.6275 171.497C90.0333 173.74 86.6118 168.925 83.6385 166.566C83.9333 170.008 85.7053 173.339 83.4452 176.577C85.2444 168.301 81.178 163.462 73.8613 160.902" fill="#D3ECE8"/>
<path d="M84.4769 171.101C84.4769 171.101 71.3909 184.299 90.8468 192.072C90.8468 192.072 101.471 178.047 84.4769 171.101Z" fill="#D3ECE8"/>
<path d="M217.84 69.3973C224.797 74.2126 228.895 63.4811 233.683 61.0156C230.182 59.3882 223.367 57.7269 219.538 59.2935C215.567 60.918 213.888 66.2849 217.59 69.2196" fill="#2FA86C"/>
<path d="M46.2368 141.94C47.7475 136.218 46.6772 135.486 42.3488 132.426C39.1223 130.147 36.1486 125.304 35.9387 121.172C35.7309 117.096 37.5843 110.897 42.4055 112.269C46.6252 113.472 50.3451 118.723 50.4223 122.945C50.482 126.311 49.0129 130.076 48.6497 133.36C48.2905 136.606 48.3825 140.336 46.0203 142.74" fill="#2FA86C"/>
<path d="M-2.11901 174.256C-0.928324 165.781 13.2117 161.061 20.0873 158.803C29.4131 155.742 38.1912 150.627 45.8445 144.198C61.3545 131.168 68.8008 111.179 83.6425 96.9974C87.5741 93.2404 91.6846 90.0783 96.1834 87.0479C100.817 83.926 104.572 83.759 109.739 82.5249C119.371 80.2162 129.841 73.0406 137.007 66.449C138.135 65.4122 138.93 64.2312 140.187 63.3377C135.46 65.0662 133.27 68.6808 129.319 71.3005C125.521 73.8225 120.856 76.9658 116.625 78.6399C107.838 82.1181 99.9015 82.7294 91.6247 88.6661C76.7946 99.3028 66.6852 115.546 55.3692 130.239C50.1686 136.991 43.4431 143.556 36.52 148.564C28.9491 154.043 21.0742 155.058 13.2578 159.222C18.0796 150.714 24.9232 144.185 32.9074 138.8C41.2347 133.183 49.9234 131.228 58.2307 127.56C60.3832 126.613 61.4566 125.634 62.7463 123.593C45.5455 128.647 28.7106 137.37 15.4032 150.679C8.75954 157.327 2.93331 165.008 -5.34408 169.74C-4.96791 171.648 -3.75578 173.637 -2.11901 174.256Z" fill="#2FA86C"/>
<path d="M58.8957 127.525C69.7625 127.005 79.1657 127.474 89.357 126.941C94.933 126.649 98.3553 125.022 103.35 127.573C107.631 129.76 112.54 130.411 116.61 133.116C123.783 137.881 130.652 135.16 136.182 144.149C141.054 152.071 143.399 157.237 142.215 168.027C144.643 158.794 142.618 151.762 137.705 143.27C132.587 134.429 122.114 135.061 114.231 130.019C112.245 128.748 110.311 127.377 108.01 126.967C112.781 125.431 119.838 126.996 124.925 126.869C130.648 126.726 135.026 127.458 140.715 125.628C150.707 122.413 152.085 116.169 159.88 110.165C164.073 106.932 171.757 105.074 176.416 103.653C181.307 102.162 184.529 99.066 188.14 95.8063C191.762 92.5303 195.638 89.0033 198.443 84.9403C201.078 81.1128 202.954 76.9245 205.962 73.3351C212.972 64.9607 216.145 66.8279 222.714 65.0224C212.875 62.1636 205.711 71.5462 201.036 78.2837C195.797 85.83 189.394 94.0884 181.533 99.0168C173.17 104.258 162.953 104.369 155.732 111.187C152.177 114.542 149.717 118.685 145.714 121.388C141.088 124.513 138.211 124.274 133.118 124.176C125.164 124.025 116.899 124.598 108.783 124.701C100.631 124.806 92.4002 123.663 84.3537 124.596C76.5 125.509 68.1898 124.868 60.0852 125.486" fill="#2FA86C"/>
<path d="M45.3663 142.782C44.0481 140.458 44.3008 138.936 41.9955 136.944C40.2905 135.468 37.8394 132.542 35.9522 131.309C30.764 127.923 26.0597 133.61 22.8588 136.539C24.849 140.556 29.6783 144.256 34.3488 143.07C39.9636 141.641 41.6265 134.938 45.5116 143.034" fill="#2FA86C"/>
<path d="M82.37 91.9788C78.8054 94.2314 76.3479 98.0873 71.8311 98.3185C66.2273 98.6032 65.665 93.8725 61.219 92.0688C64.4918 89.9913 69.4126 85.633 73.3662 86.3514C76.5586 86.9319 79.5981 90.6553 82.5168 92.233" fill="#2FA86C"/>
<path d="M88.111 91.3731C86.1419 89.1431 82.5117 89.8862 80.2554 87.8623C77.6315 85.5101 77.3873 81.8479 77.5968 78.454C85.8546 78.4799 91.4242 82.9279 88.2186 90.972" fill="#2FA86C"/>
<path d="M98.4388 84.0575C100.051 81.0352 97.3235 78.7296 96.5025 76.0281C95.7542 73.5632 96.3966 70.8493 95.8533 68.3264C107.444 70.5134 103.796 77.6177 98.9853 84.4167" fill="#2FA86C"/>
<path d="M106.504 82.7845C105.971 88.9096 113.693 88.4663 117.038 91.2244C116.515 86.068 111.999 80.3636 106.395 83.1831" fill="#2FA86C"/>
<path d="M108.698 81.4376C114.847 81.4053 113.702 73.7582 116.144 70.1768C111.055 71.1678 105.787 76.1864 109.107 81.5068" fill="#2FA86C"/>
<path d="M88.5499 92.1334C92.5261 90.8381 92.6387 96.3891 94.982 98.3426C97.254 100.237 102.667 100.267 105.281 99.6877C104.13 96.4147 103.59 92.2648 99.4726 91.4365C97.475 91.0356 95.5539 92.279 93.7523 92.3222C91.7766 92.3719 90.7804 90.8792 88.5499 92.1334Z" fill="#2FA86C"/>
<path d="M51.4379 138.347C56.7825 146.103 65.9584 143.975 73.7276 143.544C77.8848 143.312 81.03 143.974 84.8368 145.2C88.3555 146.334 91.1684 147.624 94.2359 149.924C97.0582 152.044 98.6582 155.072 100.455 158.183C98.6162 155.109 97.6283 151.863 94.8345 149.327C92.7019 147.389 90.3049 146.017 87.6096 145.059C84.6813 144.017 82.0344 142.911 78.9643 142.501C75.73 142.069 71.9067 142.46 68.7231 142.895C63.3195 143.632 54.1757 142.362 52.9514 135.694" fill="#2FA86C"/>
<path d="M78.4232 143.32C77.8288 144.291 76.9142 147.616 75.7414 147.933C74.5671 148.249 72.7313 146.244 70.746 146.742C65.9108 147.963 65.8591 152.253 63.3704 155.566C67.6392 156.545 71.8298 158.762 74.3264 153.363C75.1993 151.472 75.7318 149.946 76.6873 148.327C77.6721 146.654 78.6102 144.941 78.6944 142.912" fill="#2FA86C"/>
<path d="M79.6227 143.642C80.0047 146.234 80.4248 147.113 79.1959 149.474C78.0521 151.668 76.8188 153.172 76.1798 155.596C75.0037 160.054 76.8062 165.439 79.012 169.335C82.6285 167.277 85.4718 160.164 85.2937 156.104C85.074 151.135 80.3716 148.248 79.8116 143.533" fill="#2FA86C"/>
<path d="M95.7125 150.848C94.5002 152.813 92.4574 154.852 91.876 157.061C91.1565 159.792 93.0563 161.105 93.2884 163.63C100.987 159.984 96.4441 154.796 95.6315 151.149" fill="#2FA86C"/>
<path d="M96.863 151.963C99.7544 153.888 100.797 158.154 102.627 161.068C104.672 164.319 108.226 165.201 110.249 168.047C118.519 160.215 105.452 148.206 96.9721 152.151" fill="#2FA86C"/>
<path d="M93.1345 147.261C97.2932 144.252 104.228 147.523 106.675 141.218C99.1997 136.918 97.649 142.798 93.1345 147.261Z" fill="#2FA86C"/>
<path d="M123.355 143.77C118.204 146.892 123.989 152.672 124.2 156.498C126.273 154.697 129.334 150.748 129.428 147.81C129.528 144.755 126.528 142.106 123.544 143.661" fill="#2FA86C"/>
<path d="M142.055 146.727C134.603 148.29 139.078 157.61 137.724 162.262C140.954 160.981 146.259 157.556 147.608 154.088C149.004 150.489 146.537 146.069 142.326 146.674" fill="#2FA86C"/>
<path d="M147.829 147.912C143.043 152.638 149.016 156.736 151.173 160.67C156.687 157.41 154.106 147.171 147.449 148.131" fill="#2FA86C"/>
<path d="M153.594 147.604C160.547 152.418 164.648 141.685 169.436 139.22C165.934 137.592 159.117 135.933 155.29 137.498C151.319 139.122 149.64 144.489 153.342 147.424" fill="#2FA86C"/>
<path d="M144.603 137.881C154.121 140.915 155.39 130.233 159.079 124.683C150.986 119.68 139.298 130.141 145.154 138.231" fill="#2FA86C"/>
<path d="M203.362 76.1953C207.882 68.5841 196.384 65.0916 193.467 60.2771C192.02 64.0463 190.783 71.283 192.693 75.1617C194.677 79.1856 200.399 80.5479 203.191 76.4687" fill="#2FA86C"/>
<path d="M195.926 86.6181C195.643 78.8058 187.436 80.7006 182.375 79.4536C180.831 86.7401 191.626 92.5749 196.036 86.1217" fill="#2FA86C"/>
<path d="M200.961 77.8636C202.352 87.7518 212.529 84.2628 219.13 85.1816C220.13 75.7188 205.637 69.7259 200.885 78.5115" fill="#2FA86C"/>
<path d="M134.733 139.739C140.849 143.533 142.829 135.135 147.596 134.797C144.506 136.748 143.425 140.081 139.709 141.17C145.118 141.407 148.758 144.676 154.254 143.252C151.655 146.182 147.82 143.768 145.022 142.963C146.236 145.316 148.464 147.162 147.809 150.122C146.667 143.725 142.369 141.48 136.433 141.805" fill="#2FA86C"/>
<path d="M105.279 107.584C109.189 103.628 115.404 95.7527 117.625 93.4255C120.151 90.7787 121.749 88.3864 122.568 84.8894C123.291 81.8082 123.509 78.8542 126.315 76.8156C128.228 75.4224 131.663 74.4419 134.039 75.3541C135.201 75.7947 135.704 76.9676 136.968 77.1848C138.102 77.3803 139.973 76.5363 141 76.1236C134.539 80.0581 132.853 84.8894 136.505 90.7694C140.086 96.5346 137.523 104.407 132.687 109.676C130.332 112.239 121.458 115.447 123.337 119.509C124.021 120.992 126.983 123.093 128.326 123.409C130.298 123.868 134.588 121.833 133.88 125.727C133.883 125.879 133.889 125.876 133.892 125.714C133.208 124.058 130.571 123.741 128.943 124.241C126.729 124.92 127.112 125.981 125.904 127.762C125.889 124.753 125.95 123.359 123.334 121.377C120.268 119.049 121.041 119.108 120.682 115.32C118.977 115.742 116.674 117.389 115.187 118.463C115.803 119.493 117.523 121.861 118.499 122.534C119.857 123.471 123.138 122.515 123.402 124.787C120.084 122.94 119.452 124.917 116.84 126.506C118.106 124.005 117.367 120.396 114.276 119.08C110.924 117.653 108.726 122.19 107.383 124.917C105.84 128.054 104.181 130.989 102.798 134.235C101.949 136.227 99.6798 142.185 97.3002 142.771C97.1837 142.799 96.6317 143.1 96.4723 143.156C95.8713 141.555 97.153 140.01 97.7847 138.629C96.7728 140.115 93.0072 143.423 91.2716 143.78C90.7656 142.12 92.5319 140.366 93.274 138.877C92.0689 140.577 90.1738 143.342 88.242 144C87.9139 141.691 90.8546 137.329 91.9646 135.303C92.0413 135.231 92.0444 135.234 91.9708 135.312C90.5663 136.798 89.2355 139.135 87.0001 138.992C87.5275 134.648 94.2982 128.74 97.0089 125.479C100.069 121.796 104.969 116.995 106.699 112.608C104.031 113.582 101.428 115.543 98.7568 116.722C99.4774 115.9 100.275 115.152 101.093 114.438C99.6123 114.907 98.4164 116.049 96.9169 116.083C97.8369 115.037 98.9408 114.048 100.063 113.191C99.2812 113.573 98.4685 113.874 97.7295 114.38C100.161 111.844 103.718 110.312 105.69 107.584" fill="#5852D1"/>
<path d="M129.052 136.93C124.146 130.067 131.969 126.397 133.974 120.728C138.868 122.354 142.823 127.123 140.295 132.228C138.188 136.489 133.93 136.487 129.84 136.981" fill="#2FA86C"/>
</svg>
