<svg width="268" height="233" viewBox="0 0 268 233" fill="none" xmlns="http://www.w3.org/2000/svg">
<path d="M269.862 169.519C269.862 169.519 268.757 169.351 266.682 169.043C265.629 168.902 264.272 168.786 262.712 168.621C261.165 168.539 259.384 168.378 257.401 168.347C253.429 168.212 248.632 168.293 243.189 168.41C237.746 168.493 231.63 168.664 225.071 168.033C221.785 167.757 218.407 167.207 214.98 166.373C214.147 166.153 213.305 165.936 212.457 165.712C211.585 165.42 210.708 165.125 209.823 164.825C208.937 164.529 208.046 164.229 207.147 163.925C206.697 163.773 206.248 163.621 205.795 163.47C205.343 163.316 204.933 163.107 204.498 162.929C202.778 162.181 201.033 161.429 199.27 160.663C197.56 159.746 195.829 158.817 194.08 157.881C193.647 157.638 193.196 157.424 192.771 157.159L191.507 156.342C190.66 155.796 189.811 155.249 188.957 154.699C188.123 154.143 187.198 153.599 186.428 153.03C185.594 152.411 184.728 151.794 183.996 151.143C180.888 148.583 178.12 145.404 175.579 142C173.032 138.579 170.665 134.91 168.067 131.302C165.507 127.665 162.569 124.217 159.478 120.969C156.392 117.707 153.149 114.572 149.747 111.608C142.941 105.728 135.483 100.374 127.089 97.1464C122.902 95.5779 118.435 94.6139 113.986 94.8713C109.617 95.1857 105.414 96.005 101.28 96.2567C97.1515 96.5217 93.084 95.9893 89.3436 94.6287C85.5702 93.2323 82.0843 91.4714 78.6895 89.6692C75.3103 87.8458 72.0226 86.0383 68.7513 84.4584C67.922 84.0803 67.1003 83.7066 66.2901 83.3362C65.4792 82.9553 64.6322 82.6778 63.8182 82.3488C62.1921 81.6819 60.5407 81.1984 58.9398 80.6971C52.4652 78.7918 46.4014 77.7044 41.0722 76.5544C35.7388 75.4288 31.1255 74.2658 27.4259 72.9858C23.712 71.7479 20.9417 70.3935 19.0493 69.4957C17.2032 68.5003 16.2192 67.9658 16.2192 67.9658C16.2192 67.9658 17.1974 68.5104 19.03 69.5349C20.9078 70.4579 23.6679 71.8534 27.3722 73.1428C31.0647 74.4758 35.6717 75.7022 40.9967 76.9002C46.3087 78.1208 52.366 79.2951 58.7545 81.2682C60.3462 81.791 61.986 82.2947 63.5814 82.9741C64.3781 83.3098 65.2092 83.5917 66.0052 83.9808C66.8046 84.3583 67.614 84.7417 68.4259 85.1266C71.6514 86.7337 74.8978 88.5778 78.2623 90.4498C81.632 92.3013 85.1918 94.1551 88.9837 95.6126C92.8236 97.0743 97.0905 97.6916 101.344 97.4718C105.595 97.2676 109.804 96.502 114.056 96.2549C118.254 96.067 122.505 97.0376 126.53 98.6029C134.597 101.827 141.859 107.167 148.478 113.05C151.785 116.01 154.945 119.144 157.94 122.4C160.951 125.652 163.743 129.017 166.208 132.621C168.713 136.196 171.039 139.909 173.6 143.452C176.178 146.995 178.991 150.344 182.331 153.172C183.165 153.926 183.997 154.527 184.822 155.161C185.717 155.839 186.578 156.353 187.452 156.951C188.321 157.527 189.188 158.102 190.049 158.676L191.338 159.531C191.771 159.811 192.232 160.04 192.677 160.294C194.472 161.29 196.25 162.269 198.005 163.242C199.851 164.07 201.675 164.888 203.475 165.696C203.926 165.885 204.374 166.117 204.823 166.275C205.276 166.433 205.725 166.591 206.17 166.751C207.067 167.064 207.953 167.378 208.836 167.686C209.715 167.996 210.59 168.306 211.457 168.608L211.537 168.638L211.679 168.683L211.851 168.728L212.19 168.82L212.871 169.009C213.319 169.133 213.769 169.255 214.219 169.377C217.808 170.302 221.347 170.925 224.744 171.258C231.55 172.002 237.773 171.906 243.232 171.895C248.692 171.852 253.408 171.839 257.263 172.023C259.197 172.076 260.896 172.255 262.387 172.354C263.846 172.531 265.07 172.644 266.094 172.795C268.166 173.132 269.268 173.312 269.268 173.312L269.862 169.519Z" fill="#D3ECE8"/>
<path d="M235.138 168.31C235.138 168.31 234.777 168.215 234.1 168.043C233.762 167.955 233.346 167.849 232.856 167.721C232.401 167.572 231.881 167.403 231.295 167.215C230.123 166.814 228.681 166.253 227.088 165.505C226.283 165.148 225.465 164.682 224.577 164.237C223.728 163.723 222.796 163.245 221.889 162.635C220.031 161.485 218.118 160.071 216.168 158.482C214.22 156.891 212.266 155.081 210.377 153.078C208.479 151.079 206.654 148.897 204.936 146.556C203.228 144.224 201.636 141.723 200.165 139.165C197.249 134.028 194.833 128.581 193.317 123.245C191.784 117.922 191.171 112.704 191.57 108.279C191.759 106.068 192.184 104.068 192.723 102.345C193.298 100.633 193.948 99.1882 194.595 98.0614C195.241 96.9371 195.812 96.0818 196.249 95.5389C196.671 94.9834 196.898 94.6883 196.898 94.6883C196.898 94.6883 196.662 94.975 196.222 95.5165C195.769 96.0506 195.172 96.8874 194.489 98.0003C193.802 99.1144 193.105 100.548 192.47 102.259C191.874 103.983 191.38 105.997 191.122 108.235C190.583 112.71 191.043 118.031 192.438 123.483C193.812 128.948 196.096 134.547 198.903 139.857C200.323 142.509 201.858 145.095 203.544 147.548C205.224 149.989 207.04 152.299 208.926 154.412C210.807 156.532 212.768 158.463 214.738 160.168C216.706 161.878 218.65 163.406 220.557 164.668C221.488 165.337 222.45 165.868 223.326 166.432C224.246 166.932 225.095 167.446 225.936 167.855C227.606 168.701 229.103 169.337 230.383 169.818C231.032 170.048 231.61 170.251 232.114 170.431C232.603 170.573 233.017 170.694 233.353 170.791C234.026 170.988 234.383 171.09 234.383 171.09L235.138 168.31Z" fill="#D3ECE8"/>
<path d="M23.6063 71.2505C16.3463 64.867 27.1182 57.3635 28.5295 51.3774C31.3016 54.8107 35.0249 61.9116 34.3409 66.5855C33.6346 71.4378 28.1484 74.7759 23.874 71.4789" fill="#D3ECE8"/>
<path d="M37.8669 76.587C39.7552 87.3314 28.0017 87.1315 21.4519 90.3054C17.2248 80.8088 30.2696 69.6999 38.1655 77.2327" fill="#D3ECE8"/>
<path d="M189.753 99.7943C183.484 93.0027 194.471 86.9358 196.407 81.3837C198.701 84.9237 201.538 92.043 200.426 96.4229C199.272 100.963 193.723 103.597 189.99 100.035" fill="#D3ECE8"/>
<path d="M237.091 166.735C234.051 158.004 246.546 156.827 250.534 152.506C251.228 156.666 250.989 164.326 248.222 167.898C245.354 171.603 239.214 171.805 237.209 167.049" fill="#D3ECE8"/>
<path d="M79.8524 90.3473C71.829 88.246 70.4564 95.0198 68.978 101.669C78.1604 104.147 81.2183 96.9432 80.4061 89.4988" fill="#D3ECE8"/>
<path d="M93.3703 95.9937C83.7417 96.8529 83.3042 103.478 77.2769 109.085C80.9566 110.156 89.1837 111.596 92.4502 108.584C95.893 105.413 93.4571 100.065 95.1408 96.2942" fill="#D3ECE8"/>
<path d="M58.0669 81.8483C60.7704 91.5125 48.4669 91.7068 43.3568 94.9632C44.4447 84.5709 50.3147 84.546 58.1295 81.2164" fill="#D3ECE8"/>
<path d="M70.9147 87.8292C61.1107 86.2708 67.8456 76.0304 65.1793 71.0704C70.0568 72.3457 80.0673 85.1309 71.0768 87.2111" fill="#D3ECE8"/>
<path d="M191.716 113.69C198.06 111.314 202.712 119.186 208.671 119.001C214.083 118.833 219.843 113.642 223.513 110.565C211.87 102.55 203.236 109.566 192.155 113.883" fill="#D3ECE8"/>
<path d="M235.428 169.961C231.511 164.433 237.939 157.929 236.236 152.213C234.692 147.025 228.203 142.778 224.292 140.014C219.512 153.313 228.499 159.874 235.5 169.486" fill="#D3ECE8"/>
<path d="M195.922 129.509C191.958 125.018 167.645 130.323 173.57 116.805C179.429 103.441 193.439 122.121 194.806 128.599" fill="#D3ECE8"/>
<path d="M174.017 173.854C171.185 183.37 159.553 176.551 153.365 177.808C155.373 173.748 160.391 167.226 165.043 165.85C169.869 164.423 175.349 168.104 174.111 173.505" fill="#D3ECE8"/>
<path d="M180.339 159.367C174.239 165.664 168.821 157.927 163.666 155.162C167.845 147.934 181.23 151.177 180.058 159.866" fill="#D3ECE8"/>
<path d="M193.507 157.268C188.019 164.878 181.458 155.737 175.548 157.692C180.244 158.513 183.197 161.994 188.218 161.462C181.821 164.436 179.052 170.185 171.718 171.194C176.312 173.437 179.734 168.621 182.707 166.263C182.412 169.704 180.64 173.035 182.9 176.274C181.101 167.998 185.167 163.158 192.484 160.599" fill="#D3ECE8"/>
<path d="M181.868 170.797C181.868 170.797 194.955 183.995 175.499 191.769C175.499 191.769 164.875 177.743 181.868 170.797Z" fill="#D3ECE8"/>
<path d="M48.5054 69.0937C41.5486 73.909 37.4501 63.1776 32.6622 60.712C36.1635 59.0846 42.9783 57.4233 46.8079 58.9899C50.7787 60.6144 52.4579 65.9813 48.7558 68.916" fill="#2FA86C"/>
<path d="M220.109 141.637C218.598 135.914 219.668 135.182 223.997 132.123C227.223 129.843 230.197 125.001 230.407 120.869C230.615 116.793 228.761 110.594 223.94 111.966C219.72 113.168 216 118.419 215.923 122.641C215.863 126.007 217.333 129.772 217.696 133.057C218.055 136.302 217.963 140.032 220.325 142.436" fill="#2FA86C"/>
<path d="M268.464 173.952C267.274 165.477 253.134 160.757 246.258 158.5C236.932 155.438 228.154 150.323 220.501 143.894C204.991 130.864 197.545 110.875 182.703 96.6938C178.771 92.9368 174.661 89.7747 170.162 86.7443C165.528 83.6225 161.773 83.4554 156.607 82.2213C146.974 79.9126 136.505 72.737 129.338 66.1454C128.211 65.1086 127.415 63.9276 126.159 63.0341C130.885 64.7627 133.076 68.3772 137.026 70.9969C140.825 73.5189 145.49 76.6622 149.721 78.3363C158.507 81.8146 166.444 82.4258 174.721 88.3625C189.551 98.9992 199.66 115.242 210.976 129.936C216.177 136.688 222.902 143.253 229.825 148.26C237.396 153.739 245.271 154.754 253.088 158.918C248.266 150.411 241.422 143.882 233.438 138.497C225.111 132.88 216.422 130.925 208.115 127.256C205.962 126.309 204.889 125.33 203.599 123.29C220.8 128.343 237.635 137.066 250.942 150.375C257.586 157.024 263.412 164.704 271.69 169.436C271.313 171.344 270.101 173.333 268.464 173.952Z" fill="#2FA86C"/>
<path d="M207.45 127.222C196.583 126.702 187.18 127.17 176.989 126.637C171.412 126.345 167.99 124.718 162.995 127.269C158.714 129.457 153.806 130.107 149.736 132.813C142.563 137.577 135.693 134.856 130.164 143.846C125.291 151.768 122.947 156.933 124.13 167.724C121.702 158.49 123.727 151.459 128.64 142.966C133.758 134.125 144.231 134.757 152.115 129.715C154.101 128.445 156.034 127.074 158.336 126.664C153.565 125.128 146.507 126.692 141.42 126.565C135.697 126.423 131.319 127.155 125.631 125.324C115.638 122.109 114.26 115.866 106.466 109.862C102.272 106.628 94.5884 104.77 89.9293 103.349C85.0386 101.858 81.8165 98.7624 78.2055 95.5027C74.5838 92.2268 70.7074 88.6997 67.9028 84.6367C65.2677 80.8092 63.3915 76.6209 60.3838 73.0315C53.3734 64.6571 50.2003 66.5243 43.6311 64.7188C53.4707 61.86 60.6344 71.2426 65.3096 77.9801C70.5485 85.5264 76.9511 93.7849 84.8129 98.7133C93.1757 103.954 103.392 104.066 110.613 110.883C114.169 114.239 116.629 118.381 120.631 121.085C125.257 124.209 128.135 123.97 133.228 123.873C141.182 123.722 149.446 124.294 157.562 124.398C165.714 124.502 173.945 123.36 181.992 124.293C189.846 125.205 198.156 124.565 206.26 125.182" fill="#2FA86C"/>
<path d="M220.979 142.479C222.297 140.155 222.045 138.632 224.35 136.64C226.055 135.164 228.506 132.239 230.393 131.005C235.581 127.62 240.286 133.306 243.487 136.235C241.496 140.252 236.667 143.953 231.997 142.767C226.382 141.338 224.719 134.634 220.834 142.73" fill="#2FA86C"/>
<path d="M183.975 91.675C187.54 93.9277 189.998 97.7836 194.514 98.0148C200.118 98.2995 200.68 93.5688 205.126 91.7651C201.854 89.6876 196.933 85.3293 192.979 86.0477C189.787 86.6282 186.747 90.3516 183.829 91.9293" fill="#2FA86C"/>
<path d="M178.234 91.0695C180.204 88.8395 183.834 89.5826 186.09 87.5587C188.714 85.2065 188.958 81.5443 188.749 78.1504C180.491 78.1764 174.921 82.6243 178.127 90.6684" fill="#2FA86C"/>
<path d="M167.907 83.7539C166.294 80.7316 169.022 78.426 169.843 75.7245C170.591 73.2596 169.949 70.5457 170.492 68.0228C158.902 70.2098 162.549 77.3141 167.36 84.1131" fill="#2FA86C"/>
<path d="M159.841 82.4809C160.374 88.606 152.653 88.1627 149.308 90.9209C149.83 85.7645 154.346 80.0601 159.95 82.8795" fill="#2FA86C"/>
<path d="M157.648 81.134C151.498 81.1017 152.643 73.4546 150.202 69.8732C155.29 70.8642 160.558 75.8828 157.238 81.2032" fill="#2FA86C"/>
<path d="M177.796 91.8298C173.819 90.5345 173.707 96.0855 171.363 98.039C169.091 99.933 163.678 99.9632 161.065 99.3841C162.216 96.1111 162.755 91.9612 166.873 91.1329C168.87 90.732 170.792 91.9754 172.593 92.0186C174.569 92.0683 175.565 90.5756 177.796 91.8298Z" fill="#2FA86C"/>
<path d="M214.908 138.043C209.563 145.8 200.387 143.671 192.618 143.24C188.461 143.009 185.315 143.67 181.509 144.896C177.99 146.03 175.177 147.32 172.11 149.621C169.287 151.741 167.687 154.768 165.891 157.88C167.729 154.806 168.717 151.559 171.511 149.023C173.644 147.086 176.041 145.714 178.736 144.756C181.664 143.714 184.311 142.607 187.381 142.198C190.615 141.765 194.439 142.157 197.622 142.592C203.026 143.328 212.17 142.058 213.394 135.39" fill="#2FA86C"/>
<path d="M187.922 143.017C188.517 143.988 189.431 147.312 190.604 147.63C191.778 147.945 193.614 145.94 195.599 146.439C200.435 147.659 200.486 151.949 202.975 155.262C198.706 156.242 194.516 158.458 192.019 153.059C191.146 151.169 190.614 149.643 189.658 148.024C188.673 146.351 187.735 144.637 187.651 142.608" fill="#2FA86C"/>
<path d="M186.723 143.338C186.341 145.93 185.921 146.809 187.15 149.17C188.293 151.364 189.527 152.869 190.166 155.292C191.342 159.751 189.539 165.135 187.333 169.031C183.717 166.973 180.874 159.86 181.052 155.8C181.271 150.832 185.974 147.944 186.534 143.229" fill="#2FA86C"/>
<path d="M170.633 150.544C171.845 152.509 173.888 154.548 174.469 156.757C175.189 159.489 173.289 160.802 173.057 163.327C165.358 159.68 169.901 154.492 170.714 150.846" fill="#2FA86C"/>
<path d="M169.482 151.659C166.591 153.585 165.549 157.85 163.718 160.765C161.674 164.015 158.119 164.897 156.096 167.744C147.826 159.911 160.894 147.902 169.373 151.848" fill="#2FA86C"/>
<path d="M173.211 146.957C169.052 143.948 162.118 147.219 159.67 140.915C167.146 136.614 168.696 142.494 173.211 146.957Z" fill="#2FA86C"/>
<path d="M137.294 136.626C142.199 129.764 134.376 126.093 132.371 120.424C127.478 122.05 123.522 126.819 126.051 131.924C128.157 136.185 132.416 136.183 136.505 136.678" fill="#2FA86C"/>
<path d="M142.99 143.467C148.141 146.588 142.356 152.369 142.145 156.195C140.073 154.394 137.011 150.444 136.917 147.507C136.818 144.451 139.818 141.803 142.801 143.358" fill="#2FA86C"/>
<path d="M124.291 146.423C131.742 147.986 127.268 157.306 128.621 161.958C125.392 160.678 120.087 157.252 118.738 153.785C117.341 150.185 119.809 145.766 124.019 146.371" fill="#2FA86C"/>
<path d="M118.517 147.608C123.302 152.334 117.33 156.433 115.173 160.367C109.659 157.106 112.239 146.867 118.897 147.827" fill="#2FA86C"/>
<path d="M112.751 147.301C105.799 152.115 101.698 141.382 96.9096 138.916C100.411 137.289 107.228 135.629 111.055 137.194C115.026 138.819 116.705 144.186 113.003 147.12" fill="#2FA86C"/>
<path d="M121.743 137.577C112.225 140.612 110.955 129.929 107.267 124.379C115.359 119.377 127.047 129.838 121.192 137.927" fill="#2FA86C"/>
<path d="M62.983 75.8917C58.4631 68.2805 69.9612 64.788 72.8785 59.9736C74.3252 63.7427 75.5627 70.9795 73.6525 74.8581C71.6683 78.882 65.9462 80.2443 63.1542 76.1651" fill="#2FA86C"/>
<path d="M70.4193 86.3145C70.7025 78.5022 78.909 80.397 83.9703 79.15C85.5149 86.4365 74.7192 92.2713 70.3097 85.8181" fill="#2FA86C"/>
<path d="M65.3842 77.56C63.993 87.4482 53.8161 83.9593 47.2153 84.878C46.2153 75.4152 60.7082 69.4223 65.46 78.208" fill="#2FA86C"/>
<path d="M131.612 139.435C125.497 143.229 123.516 134.831 118.749 134.493C121.839 136.445 122.92 139.778 126.636 140.866C121.228 141.103 117.588 144.373 112.091 142.948C114.69 145.879 118.525 143.464 121.324 142.659C120.109 145.013 117.882 146.859 118.537 149.818C119.678 143.421 123.976 141.176 129.912 141.502" fill="#2FA86C"/>
</svg>
