<svg width="81" height="82" viewBox="0 0 81 82" fill="none" xmlns="http://www.w3.org/2000/svg">
<g clip-path="url(#clip0_70_50)">
<path d="M35.042 2.34545C32.2576 3.62689 26.8471 6.14233 23.0186 7.9142C15.409 11.4105 15.0293 11.6478 15.0293 12.771C15.0293 13.9259 15.3773 14.2265 18.2883 15.5871C19.7596 16.2673 21.6897 17.1691 22.5756 17.5804L24.1893 18.324L23.952 19.0833C23.5248 20.523 23.7305 21.2033 24.6797 21.4406C25.2809 21.583 25.8979 21.0292 26.1193 20.1433C26.2775 19.5421 26.3566 19.4472 26.6414 19.5263C26.8154 19.5738 29.8846 20.966 33.4441 22.6271C38.127 24.7945 40.0729 25.633 40.5 25.633C40.8955 25.633 42.2244 25.0951 44.8664 23.8769C46.9389 22.9119 49.0272 21.9468 49.4859 21.757L50.3086 21.3773V25.8544V30.3316L48.8531 30.822C45.7682 31.8345 44.4234 32.0402 40.5 32.0244C37.3992 32.0244 36.719 31.9769 35.2793 31.6763C31.957 30.9486 28.6664 29.588 25.8029 27.7529C24.4107 26.8511 24.3633 26.8037 24.474 26.3449C24.5215 26.0759 24.569 25.6962 24.5531 25.4748C24.4898 24.6363 23.2559 24.2091 22.6389 24.8261C22.3541 25.1109 21.9902 26.0601 21.9902 26.5189C21.9902 26.6138 21.3258 27.2783 20.519 27.9744C15.6305 32.2458 12.1975 38.1626 10.8211 44.6964C10.2674 47.291 10.125 52.0371 10.5047 54.7898C11.0109 58.3335 11.9443 61.2761 13.6213 64.5509C18.3199 73.7109 27.116 79.7068 37.5258 80.83C42.9205 81.4312 48.5684 80.4345 53.5992 77.9982C62.2055 73.8374 68.2014 66.1646 70.1789 56.7515C70.6852 54.3468 70.875 49.664 70.5744 47.196C70.1473 43.7314 69.1506 40.3617 67.6635 37.3716C66.825 35.663 66.4928 35.2833 65.8125 35.2833C65.3221 35.2833 64.7051 35.8687 64.7051 36.3433C64.7051 36.5173 65.1006 37.4824 65.5752 38.4632C67.0465 41.5324 68.059 45.171 68.2963 48.2876L68.3912 49.5216H61.5094H54.6275L54.5168 47.7498L54.4061 45.9779L54.8807 45.614C55.1338 45.4083 55.3869 45.0445 55.4344 44.8072C55.4818 44.5699 55.3236 43.3359 55.0863 42.0703C54.7383 40.1718 54.675 39.4599 54.7383 38.131L54.8174 36.5015L56.1621 35.6947C57.4119 34.9353 59.3104 33.5589 60.5918 32.4673L61.1455 31.9927L61.7467 32.5306C62.427 33.1476 62.7592 33.1951 63.3445 32.7363C63.6451 32.499 63.7559 32.2617 63.7559 31.882C63.7559 31.2017 62.6168 29.8412 60.5602 28.0535L59.0889 26.772L58.0131 22.6904C57.4277 20.4281 56.9373 18.5138 56.9531 18.4347C56.9531 18.3398 58.725 17.4539 60.9082 16.4572C63.0756 15.4605 65.0848 14.4638 65.3537 14.2423C65.765 13.9101 65.86 13.6886 65.9233 13.0242C66.0024 12.2806 65.9707 12.1857 65.4803 11.6794C64.9266 11.1099 62.3004 9.81264 61.6992 9.81264C61.2721 9.81264 60.5918 10.4929 60.5918 10.9201C60.5918 11.5212 60.9082 11.8535 61.8733 12.3597C62.4111 12.6287 62.8066 12.866 62.775 12.8976C62.6484 13.0242 52.1121 17.8968 51.7957 17.9759C51.5742 18.0392 49.9447 17.1374 46.1795 14.891C42.7307 12.8185 40.7373 11.7111 40.4684 11.7111C39.5508 11.7111 38.9971 13.0558 39.6773 13.6412C39.8197 13.7835 41.8764 15.0492 44.2178 16.4572C46.575 17.881 48.5842 19.115 48.6791 19.2099C48.8373 19.3523 47.9197 19.8427 44.6924 21.3298L40.5158 23.2757L36.1178 21.2349C33.6973 20.1117 28.6822 17.7861 24.9486 16.0617C21.2309 14.3372 18.2408 12.866 18.3199 12.7869C18.3832 12.7236 19.5856 12.1382 20.9777 11.4896C22.3541 10.8568 27.1318 8.64194 31.5615 6.56947C36.007 4.51283 39.8514 2.74096 40.1361 2.66186C40.6107 2.50365 41.1486 2.72514 48.5209 6.15814C52.8715 8.16733 56.6051 9.81264 56.8424 9.81264C57.7441 9.81264 58.282 8.46791 57.6176 7.86674C57.1588 7.45541 41.2594 0.130608 40.6582 0.051506C40.1994 0.00404358 39.2502 0.383728 35.042 2.34545ZM54.7383 19.558C54.7383 19.6054 55.1654 21.2507 55.7033 23.2124C56.2254 25.1742 56.6367 26.7878 56.6051 26.8195C55.7824 27.4365 52.9981 29.1134 52.7924 29.1134C52.7291 29.1134 52.6816 27.1201 52.6816 24.6837V20.2382L53.5201 19.8585C54.327 19.4789 54.7383 19.3681 54.7383 19.558ZM27.6223 31.5023L29.2201 32.2933L28.8246 33.6222L28.4291 34.9511L27.6539 34.5556C25.9295 33.6855 23.8887 32.2933 21.9428 30.648L21.4998 30.2683L22.3225 29.5564L23.1451 28.8445L24.5848 29.7779C25.3758 30.2999 26.7363 31.0751 27.6223 31.5023ZM58.9623 29.8095L59.4844 30.2683L58.8199 30.8378C56.5418 32.7996 53.6941 34.5872 53.0772 34.429C52.6975 34.3341 52.6816 34.2708 52.6816 33.1001V31.882L54.0422 31.1859C54.7858 30.7904 55.9406 30.1101 56.6051 29.6513C57.9656 28.7337 57.7916 28.7337 58.9623 29.8095ZM22.5756 34.1443C23.4615 34.8087 25.0119 35.8212 26.0086 36.3749C27.4008 37.1343 27.8279 37.4507 27.7647 37.6406C27.3375 38.9853 26.6572 44.2218 26.4832 47.4966L26.3725 49.5216H19.4906H12.6088L12.7195 48.2402C13.1467 43.0195 15.3457 37.5298 18.6838 33.3374L19.7912 31.9453L20.3766 32.4357C20.693 32.7046 21.6897 33.4798 22.5756 34.1443ZM35.5482 34.081C36.4025 34.2234 37.6049 34.3816 38.2061 34.4449L39.3135 34.5714L39.3609 36.1376L39.4084 37.7039L38.0953 37.5931C35.5482 37.3716 30.9129 36.2642 30.7547 35.8371C30.7072 35.7421 30.8654 35.0777 31.0869 34.3816L31.4824 33.1001L32.7481 33.4798C33.4441 33.6697 34.694 33.9544 35.5482 34.081ZM49.7233 33.7804C49.9289 34.3816 49.9289 34.3974 49.3436 34.9195C49.0113 35.2201 48.6633 35.7105 48.5684 36.0111C48.4102 36.4699 48.2836 36.5806 47.5717 36.7705C46.4168 37.1027 44.4393 37.4507 42.9996 37.5773L41.7656 37.688V36.1218V34.5398L43.5533 34.3499C45.3094 34.1601 47.366 33.7646 48.7266 33.3374C49.1221 33.2267 49.4543 33.1318 49.4701 33.1476C49.5018 33.1634 49.6125 33.4482 49.7233 33.7804ZM52.0805 36.6597C52.2545 36.8179 52.3652 37.1343 52.3652 37.5298V38.1468L51.5426 38.0994C50.7516 38.0519 50.7041 38.0203 50.6567 37.6089C50.5459 36.6597 51.416 36.0585 52.0805 36.6597ZM31.7672 38.7638C33.6656 39.3333 35.3426 39.6814 37.5891 39.9187L39.3135 40.1085L39.3609 44.823L39.3926 49.5216H34.077H28.7455L28.8563 47.4966C29.0777 43.6365 29.8371 38.2892 30.1693 38.2892C30.2168 38.2892 30.9287 38.4949 31.7672 38.7638ZM48.3152 39.365C48.3785 39.5232 48.2361 40.6148 48.0147 41.7855C47.5084 44.4908 47.5084 44.997 47.9988 45.4874C48.4576 45.9462 50.2453 46.5158 51.2578 46.5158C52.0014 46.5158 52.0014 46.5158 52.1121 47.1011C52.1596 47.4333 52.207 48.1136 52.207 48.604V49.5216H46.9863H41.7656V44.8072V40.1085L44.0279 39.8238C45.2619 39.6814 46.6383 39.4441 47.0654 39.3333C48.1254 39.0328 48.2203 39.0328 48.3152 39.365ZM52.4443 40.8521C52.7133 42.0861 52.9822 43.8896 52.919 43.9529C52.7766 44.0953 50.9889 44.1902 50.5459 44.0794C50.0713 43.9529 50.0555 43.8105 50.4035 41.9121L50.6725 40.504H51.5109C52.2545 40.504 52.3652 40.5515 52.4443 40.8521ZM26.4832 53.9039C26.6256 56.5775 26.9895 59.7574 27.4324 62.1462L27.7805 64.0763L26.499 64.7882C24.6481 65.8007 22.5756 67.1929 21.1359 68.3953C20.4398 68.9648 19.8229 69.4078 19.7438 69.3603C19.6805 69.3128 19.1426 68.6642 18.5572 67.9207C16.3266 65.073 14.5863 61.6242 13.6213 58.1753C13.1467 56.5142 12.6563 53.5558 12.6563 52.4484V51.8947H19.5223H26.3725L26.4832 53.9039ZM39.3609 56.6566L39.3926 61.3236L37.5258 61.5292C35.5166 61.7349 32.8272 62.2886 31.1818 62.8265C30.4383 63.0796 30.1535 63.1113 30.0586 62.9847C29.7422 62.4468 29.0461 57.2736 28.8563 53.9039L28.7455 51.8947L34.0295 51.9263L39.3135 51.9738L39.3609 56.6566ZM52.1438 53.9039C51.9539 57.2578 51.2578 62.4468 50.9414 62.9689C50.8623 63.1113 50.4826 63.048 49.5809 62.7632C47.7932 62.1937 45.5942 61.7507 43.5533 61.5292L41.7656 61.3394V56.6091V51.8947H47.0022H52.2545L52.1438 53.9039ZM68.3438 52.48C68.3279 53.54 67.8691 56.356 67.4578 57.9064C66.4295 61.6874 64.7209 65.0572 62.2529 68.158L61.2088 69.471L60.6234 68.9806C58.8832 67.541 56.969 66.1962 55.1971 65.1837L53.2037 64.0447L53.4252 63.0005C53.8365 61.0388 54.2637 57.6849 54.4535 54.774L54.6434 51.8947H61.4936H68.3438V52.48ZM39.3609 71.0214C39.3768 74.9765 39.3293 78.283 39.266 78.3462C39.0287 78.5835 37.1936 77.5236 36.2602 76.5902C35.0104 75.3562 34.0137 73.9324 33.0012 71.8916C32.226 70.357 30.6914 66.2437 30.6914 65.7374C30.6914 65.6425 30.8654 65.4685 31.0869 65.3736C31.7514 65.0572 34.9629 64.2662 36.2285 64.0921C36.8772 63.9972 37.5891 63.8865 37.8106 63.8548C38.032 63.8232 38.4592 63.8074 38.7598 63.8232L39.3135 63.839L39.3609 71.0214ZM45.2461 64.1712C46.5908 64.3927 49.043 65.0097 49.8815 65.3261C50.1188 65.421 50.3086 65.5951 50.3086 65.7216C50.3086 66.1646 48.869 70.1197 48.1887 71.5593C46.5275 75.024 44.3443 77.4919 42.2086 78.2988L41.7656 78.4728V71.1005V63.7283L42.8414 63.8232C43.4268 63.8865 44.5025 64.0447 45.2461 64.1712ZM29.1094 68.6958C29.9795 71.3378 31.6406 74.6759 32.9695 76.4162C33.5232 77.1597 33.9662 77.7925 33.9346 77.8083C33.8238 77.9191 30.644 76.8591 29.2992 76.2738C26.8945 75.2138 22.9553 72.6826 21.9111 71.5119L21.5947 71.1638L22.4648 70.3886C23.8729 69.123 27.7172 66.6076 28.2551 66.6076C28.35 66.6076 28.7297 67.541 29.1094 68.6958ZM53.615 67.0031C55.4027 67.9048 59.3262 70.7999 59.3262 71.2113C59.3262 71.2904 58.8516 71.7492 58.2662 72.2238C55.6559 74.3753 52.4127 76.163 49.2012 77.223C48.1254 77.571 47.2078 77.8242 47.1445 77.8083C47.0654 77.7767 47.4768 77.1597 48.0305 76.4162C49.3594 74.6759 51.0205 71.3378 51.8906 68.6958C52.2703 67.541 52.6342 66.6076 52.7133 66.6076C52.7924 66.6076 53.1879 66.7816 53.615 67.0031Z" fill="#4D4677"/>
</g>
<defs>
<clipPath id="clip0_70_50">
<rect width="81" height="81" fill="white" transform="translate(0 0.00402832)"/>
</clipPath>
</defs>
</svg>
