<svg width="70" height="70" viewBox="0 0 70 70" fill="none" xmlns="http://www.w3.org/2000/svg">
<path d="M39.375 0.0682614C39.2656 0.0955518 38.7051 0.191068 38.1445 0.27294C34.6172 0.846039 31.1172 3.01563 28.834 6.04487C27.7812 7.43668 26.7559 9.53805 26.291 11.2573C25.9629 12.4854 25.9219 12.8538 25.9219 15.0098C25.9219 17.1657 25.9629 17.5341 26.291 18.7622C27.4121 22.9513 30.3242 26.5264 34.1797 28.4776C35.3281 29.0644 37.2422 29.6784 38.582 29.8831C40.1133 30.1287 43.1074 29.9922 44.5703 29.6102C47.1953 28.9143 49.3008 27.7408 51.2969 25.8168C53.3066 23.8928 54.7422 21.4503 55.4668 18.7622C55.7949 17.5341 55.8359 17.1657 55.8359 15.0098C55.8359 12.8675 55.7949 12.4854 55.4668 11.2983C53.9766 5.73103 49.5742 1.5283 43.9687 0.327521C43.0801 0.136487 39.8535 -0.0545457 39.375 0.0682614ZM43.9551 3.13844C49.1914 4.48931 52.8828 9.04682 53.1426 14.464C53.5664 23.3607 44.7207 29.6784 36.3398 26.4581C32.6074 25.0117 29.6543 21.5186 28.834 17.5341C27.4395 10.8071 31.8691 4.21641 38.6504 2.93376C40.0859 2.66085 42.5059 2.75637 43.9551 3.13844Z" fill="#4D4677"/>
<path d="M39.8945 5.69018C39.3887 6.00402 39.2383 6.41338 39.2383 7.49135C39.2383 8.40558 39.2246 8.43287 38.8144 8.59661C38.582 8.69213 38.1035 9.06055 37.748 9.41533C35.7383 11.3529 36.2715 14.696 38.7871 15.9514C39.1016 16.1015 39.7852 16.2925 40.291 16.3744C41.0703 16.4699 41.2891 16.5654 41.6035 16.9202C42.0137 17.3841 42.0684 17.8344 41.7676 18.4212C41.2754 19.3763 40.0176 19.3354 39.1016 18.3529C38.3223 17.5206 37.4062 17.4114 36.7637 18.0937C36.2988 18.5849 36.3262 19.3081 36.832 19.9631C37.2285 20.4816 38.7187 21.5596 39.0332 21.5596C39.1562 21.5596 39.2246 21.8871 39.2519 22.7331C39.3066 23.811 39.334 23.9202 39.6894 24.234C39.9492 24.4524 40.2363 24.5615 40.6055 24.5615C40.9746 24.5615 41.2617 24.4524 41.5215 24.234C41.8769 23.9338 41.9043 23.811 41.9453 22.7467C42 21.6687 42.0273 21.5732 42.3008 21.505C42.4785 21.4641 42.9023 21.1775 43.2578 20.8637C45.9101 18.5303 44.6797 14.2867 41.1934 13.7545C40.0312 13.5771 39.6758 13.4134 39.4297 12.9358C39.1152 12.3354 39.1973 11.8851 39.7031 11.3802C40.373 10.7116 41.084 10.7935 42.1504 11.6804C43.1211 12.4855 44.6387 11.5986 44.3652 10.3705C44.2559 9.89291 43.4219 9.10149 42.5879 8.70577L41.9726 8.40558V7.46406C41.9726 6.42702 41.7402 5.85392 41.1934 5.60831C40.7422 5.40363 40.332 5.43092 39.8945 5.69018Z" fill="#4D4677"/>
<path d="M63.0137 29.31C61.9473 29.6648 61.25 30.1833 59.6777 31.8207C58.9258 32.5848 56.998 34.5634 55.3984 36.2008L52.4863 39.1891L51.8711 38.616C51.0781 37.8792 49.9844 37.388 48.8359 37.2379C48.3301 37.1833 44.543 37.1287 40.4141 37.1151H32.9082L31.6367 36.7057C29.709 36.0917 28.2188 35.8733 25.9766 35.8733C22.1211 35.8733 19.0176 36.7603 16.0234 38.6979C14.4922 39.694 12.4277 41.7544 11.4434 43.2691L10.6777 44.4426L9.7207 44.5108C8.09375 44.6336 7.83398 44.8246 3.80078 48.85L0.136719 52.4932V53.1346V53.7895L8.01172 61.731C12.3457 66.0839 16.0234 69.7271 16.1875 69.8227C16.5703 70.041 17.0215 70.041 17.4727 69.809C17.6777 69.6999 19.4824 67.9669 21.4785 65.9474C25.6348 61.772 25.6348 61.7583 25.5527 59.7934L25.498 58.7427L26.5371 57.7876C28.1914 56.2457 27.3301 56.3548 38.5547 56.3548C44.4746 56.3548 48.6445 56.3002 49.3418 56.2184C51.6387 55.9182 53.9766 54.9221 55.7402 53.462C56.752 52.6297 69.2754 37.6336 69.6719 36.7739C69.959 36.1872 70 35.8733 70 34.5225C70 33.0761 69.9727 32.885 69.6172 32.1346C69.084 31.0293 68.1543 30.1014 67.0195 29.5693C65.8438 29.0234 64.2168 28.9143 63.0137 29.31ZM65.9531 32.1073C66.8418 32.6121 67.3066 33.308 67.375 34.2223C67.416 34.7408 67.3613 35.1774 67.2246 35.5049C66.9648 36.119 55.4395 49.9416 54.209 51.1151C53.2109 52.0702 51.9395 52.7798 50.4492 53.2301C49.4375 53.5439 49.3418 53.5439 38.7598 53.6258C31.377 53.6804 27.959 53.7486 27.6582 53.8578C26.7148 54.1852 25.5664 54.9084 24.6504 55.7408L23.6934 56.6141L18.3477 51.2652L12.9883 45.9162L13.6445 44.8928C16.2695 40.8266 20.6172 38.6024 25.9492 38.6024C28.041 38.6024 29.3535 38.8071 30.9805 39.3938L32.0605 39.7759L40.4688 39.8441C48.8496 39.9123 48.877 39.9123 49.4512 40.2125C51.4199 41.2632 51.4199 44.0195 49.4512 45.0702C48.8906 45.3704 48.7812 45.3704 42.6152 45.4387L36.3398 45.5069L36.0117 45.8889C35.5469 46.4348 35.5742 47.0897 36.0801 47.6492L36.4766 48.0995L42.1777 48.1404C48.2754 48.1813 49.3418 48.1131 50.5039 47.581C52.4043 46.7077 53.8809 44.3197 53.7168 42.3821C53.6758 41.9318 53.8945 41.6726 58.2832 37.156C61.0039 34.3724 63.1367 32.2847 63.4648 32.0936C64.2168 31.6843 65.2285 31.6843 65.9531 32.1073ZM16.707 53.4484L22.832 59.5615V60.1755V60.7895L19.9062 63.6823C18.293 65.2788 16.9258 66.5887 16.8574 66.5887C16.8027 66.5887 13.7266 63.5732 10.0488 59.9026L3.34961 53.2164L6.38477 50.1872L9.41992 47.1716L9.99414 47.2535C10.5547 47.3217 10.8691 47.6219 16.707 53.4484Z" fill="#4D4677"/>
<path d="M30.6113 45.3704C29.8867 45.7661 29.7773 46.8031 30.3789 47.4445C30.9668 48.0721 32.0879 47.9493 32.4707 47.1988C33.1406 45.9026 31.8828 44.6745 30.6113 45.3704Z" fill="#4D4677"/>
</svg>
