<svg width="86" height="86" viewBox="0 0 86 86" fill="none" xmlns="http://www.w3.org/2000/svg">
<path d="M39.6406 6.04688C37.6754 6.4668 36.2309 7.07149 34.9039 8.06251C32.9051 9.57423 31.3094 11.8586 30.3855 14.5629C29.848 16.1418 29.8313 16.3098 29.8313 18.6445C29.8313 19.9883 29.8816 22.1047 29.9152 23.3477C29.9992 26.052 30.2344 26.707 31.6285 28.1852C32.1324 28.7059 32.5859 29.3609 32.6531 29.6465C32.8715 30.5535 34.0305 32.8211 34.8367 33.8961L35.6262 34.9711L35.4582 36.1133C35.3574 36.7516 35.2734 37.5242 35.2734 37.8266V38.3809L33.1234 39.2039C28.118 41.1188 24.0195 43.1344 21.8863 44.7469C20.9625 45.4523 20.5258 45.6539 19.9043 45.7211C19.0477 45.8219 18.4598 46.1746 17.9055 46.9305C17.5863 47.3336 17.5359 47.7199 17.452 50.1891C17.3512 52.927 17.3344 53.0445 16.6289 55.0938C16.2426 56.2527 15.4027 59.0074 14.7645 61.2078C13.5383 65.4406 13.3535 66.7508 13.7902 68.0441C13.9078 68.3633 14.7812 69.9422 15.7219 71.5715L17.4687 74.5277V76.2242V77.9375H11.8418H6.19804L5.79492 78.3574C5.24062 78.8949 5.24062 79.6676 5.79492 80.2051L6.19804 80.625H43H79.802L80.2051 80.2051C80.7594 79.6676 80.7594 78.8949 80.2051 78.3574L79.802 77.9375H74.1582H68.5313V76.2242V74.5109L70.043 72.5289C71.9914 69.9926 72.3945 69.1695 72.3945 67.5906C72.3945 66.5324 72.193 65.743 70.6981 61.0398C69.7742 58.1004 68.9176 55.5305 68.8168 55.3457C68.6824 55.1273 68.5816 53.6492 68.5313 51.1969C68.4473 47.6863 68.4137 47.3504 68.0945 46.9305C67.4395 46.0402 66.9188 45.7883 65.6758 45.7211C64.6512 45.6539 64.4496 45.5867 63.8449 45.0828C62.8035 44.1758 60.4856 42.7816 58.218 41.673C56.1352 40.6652 52.3223 39.0191 51.2137 38.6496C50.5418 38.4313 50.5082 38.3641 50.3066 36.0293L50.2059 34.8535L50.9617 33.9297C51.852 32.8715 52.7254 31.2422 53.1621 29.8984C53.3469 29.3106 53.7164 28.6891 54.1699 28.202C55.5137 26.7574 56.0176 25.1617 55.6984 23.3477C55.6145 22.8438 55.5809 21.9367 55.6145 21.332C55.7824 18.5606 55.6481 15.5539 55.2785 14.2102L54.9258 12.8832L55.5137 11.6906C56.2191 10.2629 56.3871 9.42305 56.1016 8.73438C55.7824 7.96172 55.2281 7.76016 53.4141 7.76016C51.768 7.76016 51.1969 7.62579 49.2316 6.80274C46.6617 5.72774 42.6137 5.4086 39.6406 6.04688ZM46.0234 8.6336C46.6281 8.76797 47.8375 9.1543 48.7109 9.49024C49.5844 9.84297 50.7938 10.1957 51.3984 10.2797C53.1957 10.5652 53.2125 10.582 52.591 11.2875C51.9359 12.0266 51.9191 12.5641 52.507 14.3613C52.8766 15.4531 52.9606 16.1082 53.0109 17.8887L53.0781 20.0723L52.7422 19.3668C52.3727 18.5941 52.0703 17.2504 52.0703 16.3434C52.0703 15.9234 51.9359 15.6211 51.5664 15.2516C51.0793 14.7813 50.9785 14.7477 50.1723 14.8316C49.6852 14.882 48.543 15.1004 47.6191 15.302C46.1914 15.6211 45.4691 15.6883 42.7481 15.6883C39.9262 15.6883 39.3047 15.6379 37.4234 15.2348C36.2477 14.9828 35.1391 14.7813 34.9375 14.7813C34.7527 14.7813 34.3832 14.9828 34.0977 15.2348C33.6777 15.6379 33.5602 15.8898 33.4258 16.9145C33.2746 18.0734 32.8547 19.3836 32.5523 19.7195C32.4852 19.8203 32.418 19.3332 32.418 18.6277C32.4348 14.5293 35.0887 10.3637 38.4648 9.1375C40.5309 8.39845 43.8566 8.18008 46.0234 8.6336ZM39.9598 18.3254C42.6809 18.6109 47.2664 18.3086 49.2148 17.7207C49.3996 17.6535 49.534 17.9391 49.7523 18.8629C50.1723 20.5762 51.2305 22.6422 52.1207 23.4652C52.5238 23.8348 52.9438 24.1707 53.0445 24.2043C53.4813 24.3555 52.8934 25.5984 51.9695 26.5391C51.4656 27.043 51.0121 27.6477 50.9617 27.8828C50.0883 31.8301 47.4512 34.5344 43.8734 35.1223C41.4715 35.5254 39.2879 34.8031 37.541 33.0059C36.4324 31.8805 35.6934 30.4863 35.1055 28.4203C34.8031 27.3621 34.6688 27.1605 34.1145 26.791C33.3754 26.3375 32.7707 25.4641 32.6363 24.641C32.5691 24.1371 32.6363 23.9859 33.2746 23.3141C34.2824 22.2727 35.2063 20.6602 35.7102 19.0477L36.1301 17.6871L37.0707 17.9055C37.5914 18.0231 38.8848 18.2078 39.9598 18.3254ZM47.7199 36.9867C47.7199 37.1043 47.7871 37.8098 47.8543 38.5488L47.9887 39.8926L47.1488 41.4883C46.6953 42.3617 45.9395 43.6719 45.4859 44.3773L44.6461 45.6875H42.8488H41.0516L40.1109 44.1254C39.5902 43.2855 38.868 41.9586 38.4816 41.2027C37.793 39.8086 37.793 39.8086 37.8938 38.3809C37.9609 37.5914 38.0281 36.9531 38.0617 36.9531C38.0953 36.9531 38.6832 37.1379 39.3719 37.3731C41.7066 38.1457 44.2766 38.0953 46.3594 37.2219C47.4512 36.7516 47.7031 36.718 47.7199 36.9867ZM36.0965 42.4625C36.466 43.1848 37.0035 44.1758 37.2891 44.6797C37.5746 45.1668 37.7762 45.5867 37.7426 45.6203C37.709 45.6539 34.9207 45.6707 31.5613 45.6539L25.4473 45.6035L27.6309 44.5117C29.2266 43.7223 34.9039 41.2699 35.391 41.1691C35.4246 41.1523 35.727 41.7402 36.0965 42.4625ZM51.9359 41.8074C53.7332 42.5297 56.9918 44.0414 58.6211 44.9148L60.0488 45.6875H53.9516H47.8543L48.291 44.9652C48.5262 44.5789 49.0805 43.6047 49.5172 42.7816C49.9539 41.9754 50.3906 41.3203 50.5082 41.3203C50.6258 41.3203 51.2641 41.5387 51.9359 41.8074ZM65.8438 63.1563V77.9375H43H20.1562V63.1563V48.375H43H65.8438V63.1563ZM17.4352 67.2211L17.3848 69.1191L16.8305 68.1449C16.4105 67.4395 16.2594 66.9691 16.2594 66.4316C16.2594 66.0285 16.5113 64.7855 16.8305 63.7105L17.3848 61.7285L17.4352 63.5258C17.452 64.5168 17.452 66.1797 17.4352 67.2211ZM69.6566 67.3555C69.7406 68.3969 69.707 68.4809 69.1359 69.2871L68.5313 70.127L68.5481 66.6836L68.5648 63.2402L69.0688 64.752C69.3375 65.575 69.6063 66.7508 69.6566 67.3555Z" fill="#4D4677"/>
<path d="M41.3203 58.0499C37.5074 59.4273 36.3988 64.1304 39.2207 66.9355C40.3293 68.0441 41.3203 68.4472 43 68.4304C44.2094 68.4304 44.5621 68.3632 45.2844 67.9937C46.5441 67.3386 47.0816 66.8179 47.7199 65.6421C48.2238 64.6847 48.2742 64.4496 48.291 63.1562C48.291 61.4765 47.8879 60.4855 46.7793 59.3769C45.402 57.9996 43.0504 57.4285 41.3203 58.0499ZM44.0582 60.7039C45.7883 61.4261 46.2082 63.6769 44.8645 65.0206C43.7727 66.1124 42.2273 66.1124 41.1356 65.0206C39.0527 62.9546 41.3539 59.5617 44.0582 60.7039Z" fill="#4D4677"/>
</svg>
