<svg width="74" height="74" viewBox="0 0 74 74" fill="none" xmlns="http://www.w3.org/2000/svg">
<path d="M19.0059 4.42265C10.5797 6.83633 3.52658 8.93203 3.33869 9.07656C2.03791 10.0449 2.03791 11.6348 3.33869 12.6031C3.52658 12.7477 5.86798 13.4848 8.52736 14.2508C11.1867 15.0023 13.8027 15.7539 14.352 15.9129L15.3203 16.202V21.723C15.3203 28.5594 15.4938 30.207 16.491 33.3434C17.9508 37.8816 21.0582 42.1164 24.7293 44.5301C25.3652 44.9492 25.8711 45.3395 25.8711 45.4117C25.8711 45.5129 24.9027 47.5363 24.7871 47.6664C24.7582 47.6953 24.0789 47.7965 23.2551 47.9121C20.5379 48.259 18.4567 48.866 16.1152 49.9934C8.52736 53.6211 3.3965 60.9199 2.4715 69.4039C2.15353 72.2512 2.37033 73.1473 3.46877 73.7109C4.03244 74 4.24924 74 34.832 74C65.4149 74 65.6316 74 66.1953 73.7109C67.2938 73.1473 67.5106 72.2512 67.1926 69.4039C66.2676 60.9199 61.1367 53.6211 53.5488 49.9934C51.2074 48.866 49.1262 48.259 46.409 47.9121C45.5852 47.7965 44.9059 47.6953 44.877 47.6664C44.7613 47.5363 43.793 45.5129 43.793 45.4117C43.793 45.3395 44.2988 44.9492 44.9348 44.5301C48.6059 42.1164 51.7133 37.8816 53.1731 33.3434C54.1703 30.207 54.3438 28.5594 54.3438 21.723V16.202L55.3266 15.9129C55.8613 15.7539 57.6969 15.2336 59.4024 14.7422C61.1078 14.2508 62.6254 13.8316 62.7699 13.7883C63.0012 13.716 63.0156 14.2797 63.0156 24.3824V35.0488L62.0762 35.5402C60.5008 36.3496 59.2289 38.0551 58.8387 39.8617C58.752 40.2809 58.6797 41.8273 58.6797 43.3016C58.6797 46.409 58.8098 46.8859 59.836 47.4062C60.3707 47.6809 60.6742 47.6953 65.1836 47.6953C69.693 47.6953 69.9965 47.6809 70.5313 47.4062C71.5574 46.8859 71.6875 46.409 71.6875 43.3016C71.6875 41.8273 71.6152 40.2809 71.5285 39.8617C71.1383 38.0551 69.8664 36.3496 68.291 35.5402L67.3516 35.0488L67.3227 23.4141C67.3082 17.0113 67.3082 11.4758 67.3371 11.1C67.3805 10.1316 66.9324 9.32226 66.152 8.96093C65.2992 8.55624 35.2078 -7.62939e-06 34.7309 0.0144501C34.4996 0.0289001 27.432 2.00898 19.0059 4.42265ZM46.0621 7.61679C52.1324 9.35117 57.0899 10.7965 57.0899 10.8398C57.0899 10.8832 52.0746 12.343 45.961 14.0918L34.832 17.257L23.7031 14.0918C17.5895 12.343 12.5742 10.8832 12.5742 10.8398C12.5742 10.7387 34.384 4.50937 34.7598 4.49492C34.9188 4.48046 40.0063 5.89687 46.0621 7.61679ZM27.5043 19.6707C31.3777 20.7691 34.6731 21.6797 34.832 21.6797C34.991 21.6797 38.2863 20.7691 42.1598 19.6707C46.0332 18.5578 49.3863 17.6039 49.6176 17.5605L50.0078 17.4594V20.5523C50.0078 24.3969 50.0223 24.3824 48.2735 25.2496C46.0188 26.3769 42.4344 27.4176 39.0957 27.909C37.4047 28.1691 32.2738 28.1691 30.5684 27.9234C27.2875 27.432 23.8332 26.4348 21.434 25.2785C19.6707 24.4402 19.6563 24.3824 19.6563 20.509V17.4594L20.061 17.5605C20.2777 17.6039 23.6309 18.5578 27.5043 19.6707ZM20.9715 29.8312C22.1567 30.3516 24.8883 31.2043 26.5938 31.5801C29.6867 32.2738 31.2332 32.4328 34.832 32.4328C37.3613 32.4328 38.6477 32.3605 39.8906 32.1727C43.0992 31.6812 46.1199 30.8863 48.5336 29.8891C49.1117 29.6434 49.6176 29.4699 49.6465 29.4988C49.6754 29.5277 49.6176 29.9324 49.502 30.3805C48.9672 32.6785 47.8977 35.1211 46.5969 36.9566C45.0649 39.1246 42.2899 41.3937 40.0352 42.3043C38.1274 43.0703 37.0723 43.2727 34.832 43.2727C32.5918 43.2727 31.5367 43.0703 29.6289 42.3043C27.3742 41.3937 24.5992 39.1246 23.0672 36.9566C21.8242 35.1934 20.5813 32.4039 20.1621 30.4238C20.1188 30.1781 20.0465 29.8746 20.0031 29.7301C19.902 29.3977 20.0465 29.4121 20.9715 29.8312ZM66.1953 39.3125C67.0625 39.7605 67.3516 40.4398 67.3516 42.0586V43.3594H65.1836H63.0156V42.0586C63.0156 40.4687 63.3047 39.7605 64.143 39.327C64.8367 38.9512 65.4871 38.9512 66.1953 39.3125ZM31.3922 47.3484C32.9531 47.7098 36.5231 47.7098 38.2719 47.3484C39.009 47.2039 39.6305 47.1027 39.6594 47.1316C39.7895 47.2762 40.9024 49.5887 40.9024 49.7187C40.9024 49.9066 34.9621 58.8242 34.832 58.8242C34.702 58.8242 28.7617 49.9066 28.7617 49.7187C28.7617 49.4152 29.9902 47.1172 30.1637 47.1172C30.2504 47.1172 30.8141 47.2184 31.3922 47.3484ZM28.834 57.7691L32.6641 63.5215V66.5855V69.6641H19.7141H6.76408L6.86525 68.898C7.81916 61.7871 13.2391 55.2832 20.0754 53.0574C21.3473 52.6383 23.1828 52.2191 24.209 52.1324C24.527 52.1035 24.8305 52.0746 24.8883 52.0602C24.9606 52.0457 26.7238 54.6184 28.834 57.7691ZM47.1895 52.4215C55.182 53.9535 61.7149 60.8477 62.7988 68.898L62.9 69.6641H49.95H37V66.5855V63.5215L40.8156 57.798L44.6457 52.0602L45.3395 52.1324C45.7152 52.1613 46.5535 52.2914 47.1895 52.4215Z" fill="white"/>
<path d="M46.7992 61.0066C46.1777 61.3246 45.6719 62.1773 45.6719 62.8711C45.6719 63.5938 46.1777 64.4176 46.8281 64.75C47.334 65.0102 47.6809 65.0391 50.0078 65.0391C52.3348 65.0391 52.6816 65.0102 53.1875 64.75C53.8379 64.4176 54.3438 63.5938 54.3438 62.8711C54.3438 62.1484 53.8379 61.3246 53.1875 60.9922C52.6816 60.732 52.3492 60.7031 49.9789 60.7031C47.6375 60.7176 47.2762 60.7465 46.7992 61.0066Z" fill="white"/>
</svg>
