<svg width="82" height="74" viewBox="0 0 82 74" fill="none" xmlns="http://www.w3.org/2000/svg">
<path d="M5.01406 1.01418C4.17031 1.85793 4.08593 2.59621 4.71875 3.60871C5.18281 4.36808 5.49922 4.49464 7.35547 4.55793L8.62109 4.6212L8.72656 12.7001L8.83203 20.8001L9.42265 21.3064C10.4562 22.1923 12.0383 21.8759 12.6289 20.6525C12.9031 20.0618 12.9453 18.7751 12.9453 12.236V4.51574L43.1726 4.55793L73.3789 4.6212L73.4422 26.179L73.4844 47.7579H63.6336C52.4961 47.7579 52.5805 47.7368 52.0109 49.2767C51.7367 49.9728 51.7578 50.1415 52.0953 50.8587C52.3906 51.4282 52.707 51.7235 53.2344 51.9134C53.7828 52.1032 57.432 52.1665 66.7555 52.1665C73.8008 52.1876 79.8336 52.1243 80.2133 52.061C81.2258 51.8501 81.9219 51.0275 81.9219 50.036C81.9219 49.572 81.8164 49.0235 81.6898 48.7704C81.3734 48.1798 80.2133 47.7579 78.8633 47.7579H77.7031V26.1368V4.51574H79.2008C80.5719 4.51574 80.7406 4.47355 81.3102 3.90402C82.1117 3.08136 82.1539 1.85793 81.4156 0.99308L80.9094 0.402454L43.3203 0.339176L5.73125 0.296986L5.01406 1.01418Z" fill="white"/>
<path d="M36.0851 13.3751C35.2414 13.6282 34.925 13.9446 34.6929 14.7884C34.3976 15.8642 34.8617 16.8767 35.8109 17.2774C36.9078 17.7415 62.3679 17.7415 63.4648 17.2985C64.3086 16.9399 64.625 16.4126 64.625 15.3157C64.625 14.3243 63.9289 13.5017 62.9164 13.2907C61.9039 13.1009 36.7601 13.1642 36.0851 13.3751Z" fill="white"/>
<path d="M27.3523 22.0446C26.15 22.3821 25.5805 23.9852 26.2344 25.1876C26.8039 26.2634 26.6141 26.2423 45.3242 26.2423C63.9289 26.2423 63.8445 26.2423 64.393 25.2298C64.5195 24.9767 64.625 24.4282 64.625 23.9642C64.625 22.9727 63.9289 22.1501 62.9164 21.9392C61.8406 21.7282 28.1117 21.8337 27.3523 22.0446Z" fill="white"/>
<path d="M12.3758 26.5587C9.50705 27.3392 6.49064 29.7228 5.30939 32.1486C2.77814 37.2954 4.29689 43.2861 8.87423 46.3447C10.9203 47.6947 12.6078 48.222 14.9492 48.2431C18.2188 48.2642 20.6867 47.2306 22.9649 44.9103C25.0531 42.8009 26.0235 40.354 26.0235 37.19C26.0235 33.9626 24.8211 31.2837 22.3742 29.0478C19.7375 26.6431 15.7508 25.6517 12.3758 26.5587ZM17.8602 31.1572C19.2735 31.79 20.4969 32.9923 21.193 34.3845C21.6149 35.2493 21.6992 35.7345 21.6992 37.3165C21.6992 38.9618 21.6149 39.3626 21.1297 40.2697C20.3914 41.6829 19.2313 42.7587 17.7125 43.4548C16.6156 43.94 16.2992 44.0032 14.7594 43.9189C12.0805 43.7712 10.1399 42.5056 9.0008 40.2064C8.19923 38.6032 8.15705 36.1775 8.89533 34.5743C10.4774 31.0939 14.443 29.5962 17.8602 31.1572Z" fill="white"/>
<path d="M57.0945 30.9884C56.8414 31.1572 50.5977 38.5189 43.2148 47.3572L29.7781 63.4095L29.1031 61.7431C27.6898 58.2204 25.1164 55.4361 21.7625 53.7908C17.375 51.6181 12.8609 51.6181 8.30469 53.8118C4.57109 55.6048 1.55469 59.3384 0.5 63.4939C0.1625 64.8017 0.078125 65.8353 0.078125 68.7673C0.078125 72.2478 0.0992187 72.4376 0.563281 72.965C0.858594 73.3236 1.32266 73.5556 1.89219 73.64C2.65156 73.7454 2.8625 73.6611 3.47422 73.1126L4.19141 72.4798L4.31797 68.5986C4.42344 65.3923 4.50781 64.5486 4.86641 63.6415C7.37656 57.3134 14.3375 54.6134 20.2016 57.7353C22.5008 58.9376 24.5891 61.4689 25.4539 64.0845C25.5594 64.4431 25.707 66.4048 25.7914 68.4298C25.9391 72.4798 26.1078 73.0704 27.2469 73.5134C28.85 74.1462 30.2422 72.8384 30.2422 70.729V69.5056L45.2187 51.6181C55.9555 38.772 60.2375 33.5407 60.3219 33.0767C60.6383 31.347 58.5289 29.997 57.0945 30.9884Z" fill="white"/>
</svg>
