<svg width="74" height="74" viewBox="0 0 74 74" fill="none" xmlns="http://www.w3.org/2000/svg">
<path d="M6.64844 4.13359C3.55547 4.94297 1.09844 7.44336 0.289062 10.6375C0 11.7215 0 12.343 0 37C0 61.657 0 62.2785 0.289062 63.3625C1.11289 66.5855 3.56992 69.0859 6.7207 69.8809C7.47227 70.0687 11.5047 70.0977 39.3848 70.0977C69.8664 70.0977 71.2105 70.0832 71.7598 69.823C72.4824 69.5051 73.1906 68.8113 73.6098 68.0164L73.9277 67.4238V44.6602V21.8965L73.6242 21.3184C72.9738 20.1043 71.6152 19.2227 70.4156 19.2227C69.3316 19.2227 68.7246 20.2344 69.3027 21.0582C69.4328 21.2316 69.8664 21.4629 70.3145 21.593C71.673 21.9977 71.543 19.5984 71.543 44.6891V66.9035L71.1961 67.3082L70.8492 67.7129H39.3559C12.6031 67.7129 7.76133 67.684 7.1543 67.5105C4.36484 66.7156 2.45703 64.1863 2.45703 61.2812C2.45703 59.5469 2.97734 58.2316 4.20586 56.8875C5.18867 55.8035 6.61953 55.0953 8.18047 54.9074C9.09102 54.7918 9.39453 54.6906 9.68359 54.4016L10.0449 54.0547L10.0883 37.7949L10.1172 21.5352H13.557C17.2426 21.5207 17.3438 21.5062 17.6184 20.7691C17.7918 20.3211 17.6184 19.7141 17.2281 19.425C17.0402 19.2805 16.1297 19.2371 13.557 19.2227H10.1172V12.1551C10.1172 4.88515 10.0738 4.33594 9.53906 4.04688C9.14883 3.84453 7.57344 3.88789 6.64844 4.13359ZM7.63125 29.441L7.58789 52.5371L6.86523 52.6961C5.41992 53.0285 4.23477 53.6355 3.10742 54.6184L2.5293 55.1242L2.48594 33.459C2.45703 17.0547 2.48594 11.6203 2.61602 11.1289C3.15078 9.09101 4.74062 7.34219 6.66289 6.64844C7.09648 6.50391 7.48672 6.37383 7.55898 6.35938C7.6168 6.35938 7.6457 16.7512 7.63125 29.441Z" fill="white"/>
<path d="M61.9895 6.57611C61.6715 6.74955 61.368 7.38549 60.2117 10.2617L58.8242 13.7304V37.1156C58.8242 59.5902 58.8387 60.5152 59.0988 61.0788C59.2434 61.4113 59.5902 61.8304 59.8504 62.0183C60.2984 62.3363 60.5008 62.3652 62.4086 62.4085C64.4031 62.4519 64.4898 62.4519 65.0969 62.0906C65.5305 61.8449 65.834 61.5124 66.0363 61.0933L66.3398 60.4718V37.1445V13.8316L65.0969 10.7097C63.5504 6.79291 63.507 6.72065 63.0734 6.5183C62.6109 6.31596 62.452 6.31596 61.9895 6.57611ZM63.2613 12.5019L63.8539 14.0195H62.5676H61.2812L61.5848 13.2535C61.7582 12.8488 62.0184 12.155 62.1773 11.7359C62.3508 11.3312 62.5242 10.9843 62.5676 10.9843C62.6109 10.9843 62.9289 11.6636 63.2613 12.5019ZM63.8828 35.6992V54.9218H62.582H61.2812V35.6992V16.4765H62.582H63.8828V35.6992ZM63.8828 58.7519V60.1249H62.582H61.2812V58.7519V57.3788H62.582H63.8828V58.7519Z" fill="white"/>
<path d="M20.8414 11.8949L20.5234 12.2273V34.4562V56.6707L20.8848 57.0176L21.2316 57.3789H38.3008H55.3699L55.7168 57.0176C56.0926 56.6562 56.1793 56.107 55.9336 55.6445C55.6734 55.1531 22.8215 12.2129 22.4602 11.8805C21.9687 11.4469 21.2461 11.4613 20.8414 11.8949ZM37.7082 35.6703C45.7441 46.1777 52.3203 54.8062 52.3203 54.8496C52.3203 54.893 45.6863 54.9219 37.5781 54.9219H22.8359V35.598C22.8359 24.2379 22.8937 16.332 22.966 16.4043C23.0383 16.491 29.6723 25.1484 37.7082 35.6703Z" fill="white"/>
<path d="M27.75 30.4528C27.6344 30.4962 27.3887 30.6696 27.2152 30.8286L26.8828 31.1176V40.6856C26.8828 50.0368 26.8828 50.2536 27.1719 50.5571C27.3309 50.7161 27.6777 50.904 27.9234 50.9473C28.1836 50.9907 31.5656 51.0196 35.4391 50.9907L42.4777 50.9473L42.8101 50.6294C43.5617 49.8633 43.7207 50.109 36.0027 40.0208C32.1004 34.9044 28.8195 30.6696 28.7184 30.6262C28.4004 30.4528 27.9668 30.3805 27.75 30.4528ZM34.3551 41.7985C37.0434 45.3106 39.298 48.259 39.3558 48.3747C39.457 48.5337 38.5609 48.5626 34.3262 48.5626H29.1953V41.8997C29.1953 37.6649 29.2531 35.2801 29.3398 35.3379C29.4121 35.3813 31.6668 38.2864 34.3551 41.7985Z" fill="white"/>
<path d="M33.8059 19.3672C33.6758 19.4395 33.4879 19.6996 33.3867 19.9453C33.1699 20.4512 33.3867 21.1594 33.8348 21.3906C33.9937 21.4773 38.1996 21.5352 44.7324 21.5352H55.3699L55.7168 21.1738C55.948 20.957 56.0781 20.6535 56.0781 20.3789C56.0781 20.1043 55.948 19.8008 55.7168 19.584L55.3699 19.2227H44.7035C38.2719 19.2227 33.9504 19.2805 33.8059 19.3672Z" fill="white"/>
</svg>
