<svg width="74" height="74" viewBox="0 0 74 74" fill="none" xmlns="http://www.w3.org/2000/svg">
<g clip-path="url(#clip0_54_21)">
<path d="M56.0348 0.231232C50.1379 1.30077 45.2672 5.72342 43.8074 11.3457C43.4027 12.8488 43.1715 14.9012 43.2582 15.9273L43.3305 16.7656H32.5773C20.8848 16.7656 21.2172 16.7367 20.8414 17.5605C20.6246 18.0375 20.6246 18.3844 20.8414 18.8613C21.2172 19.6851 20.8703 19.6562 32.8375 19.6562H43.8652L44.3133 20.8558C44.559 21.5062 44.8047 22.1566 44.877 22.2867C44.9781 22.5324 44.1109 22.5469 27.909 22.5469C9.25 22.5469 10.2039 22.5035 9.84258 23.3707C9.72695 23.6742 9.68359 28.1691 9.7125 40.8012L9.75586 57.8414L10.1605 58.1883L10.5652 58.5351H37H63.4348L63.8395 58.1883L64.2441 57.8414L64.2875 43.764L64.3309 29.7012L65.7617 28.9496L67.207 28.198V43.7929C67.207 54.4594 67.1637 59.5179 67.048 59.7926C66.8602 60.284 66.2531 60.9488 65.7328 61.2234C65.1402 61.5269 8.85977 61.5269 8.26719 61.2234C7.74688 60.9488 7.13984 60.284 6.95195 59.7926C6.83633 59.5035 6.79297 53.5199 6.79297 40.5699C6.79297 22.6191 6.80742 21.723 7.06758 21.1738C7.21211 20.8558 7.45781 20.4801 7.60234 20.35C8.00703 19.9887 8.87422 19.6562 9.39453 19.6562C9.66914 19.6562 10.0016 19.4972 10.2906 19.2371C10.6809 18.8902 10.7676 18.7168 10.7676 18.2109C10.7676 17.7051 10.6809 17.5316 10.2762 17.1703C9.79922 16.7512 9.74141 16.7367 8.84531 16.809C6.98086 16.9824 5.3043 18.182 4.43711 19.9308L3.97461 20.8847L3.93125 40.1797C3.90234 59.8793 3.90234 59.9949 4.39375 61.1656C4.49492 61.3824 4.32148 61.4113 2.67383 61.4547L0.838281 61.498L0.419141 61.975L0 62.4375V65.0824C0 67.9586 0.130078 68.7679 0.838281 70.2133C1.34414 71.2683 2.73164 72.6558 3.78672 73.1617C5.62227 74.0578 3.39648 74 37 74C70.6758 74 68.4355 74.0578 70.2277 73.1617C71.2828 72.6414 72.5836 71.3117 73.1328 70.2422C73.8699 68.7824 74 68.0019 74 65.0824V62.4375L73.5809 61.975L73.1617 61.498L71.3262 61.4547C69.6785 61.4113 69.5051 61.3824 69.6063 61.1656C70.0832 60.0238 70.0977 59.7347 70.0977 42.5644V25.6543L70.9215 24.5703C71.3695 23.9777 72.0488 22.8359 72.4391 22.041C75.3008 16.1441 74.1156 9.16326 69.4617 4.53826C65.8773 0.968338 60.8621 -0.635956 56.0348 0.231232ZM61.8305 3.3242C68.9992 5.36209 72.8871 12.8922 70.3145 19.7574C68.3055 25.1051 62.7121 28.4726 57.0754 27.7355C56.2516 27.6344 55.4566 27.5476 55.3121 27.5765C55.1531 27.591 53.7656 28.3281 52.2191 29.1953C50.6727 30.0769 49.343 30.7851 49.2707 30.7851C49.1984 30.7851 49.1406 29.2387 49.1406 27.1863V23.5875L48.4758 22.6191C47.5941 21.3472 46.9004 19.8441 46.5246 18.4277C46.091 16.7945 46.091 13.9906 46.5246 12.3574C47.782 7.66013 51.3664 4.20584 56.0781 3.16521C57.6824 2.80389 60.284 2.87615 61.8305 3.3242ZM46.2789 29.6867L46.3223 33.9359L46.6691 34.3117C47.175 34.8465 47.8109 34.9187 48.577 34.5429C48.9238 34.3551 50.6871 33.3867 52.4938 32.3605L55.7746 30.5105L57.0465 30.6551C58.2172 30.7996 60.3129 30.7418 61.1078 30.5394L61.4258 30.4672V43.0558V55.6445H37H12.5742V40.541V25.4375H29.4121H46.2355L46.2789 29.6867ZM71.1094 65.8773C71.1094 68.0597 70.8781 68.7679 69.8231 69.823C68.3922 71.2394 71.702 71.1238 36.7109 71.0804L5.99805 71.0371L5.3332 70.7047C4.48047 70.2855 3.71445 69.5195 3.29531 68.6668C3.0207 68.1031 2.96289 67.7129 2.91953 66.1519L2.86172 64.3164H36.9855H71.1094V65.8773Z" fill="white"/>
<path d="M57.798 5.99805C57.3645 6.2293 57.4801 5.99805 53.5633 15.4359C52.1324 18.8613 51.1641 21.3762 51.1641 21.6652C51.1641 22.2867 51.8289 22.9805 52.4504 22.9805C53.491 22.9805 53.7223 22.677 55.0086 19.4828L55.5723 18.0664H58.4773H61.3969L62.2352 20.1188C63.1891 22.4602 63.5793 22.9805 64.3887 22.9805C65.1113 22.9805 65.7617 22.3445 65.7617 21.6219C65.7617 21.2895 64.909 19.0203 63.3625 15.2191C59.6336 6.05586 59.7203 6.2293 59.2434 5.99805C58.7375 5.72344 58.2895 5.73789 57.798 5.99805ZM59.4023 13.1523C59.8215 14.193 60.125 15.0746 60.0961 15.118C60.0527 15.1469 59.3012 15.1613 58.4195 15.1469L56.8297 15.1035L57.6391 13.1234C58.0871 12.0395 58.5062 11.1867 58.5496 11.2156C58.6074 11.2445 58.9832 12.1262 59.4023 13.1523Z" fill="white"/>
<path d="M16.9535 29.3109C16.7801 29.441 16.5633 29.7734 16.4621 30.0191C16.332 30.4094 16.3465 30.5828 16.5777 31.0309C16.9824 31.8836 17.257 31.927 22.1133 31.927C25.9 31.9414 26.4348 31.9125 26.8828 31.6813C27.8223 31.2188 28.0102 29.9613 27.2152 29.3398C26.8539 29.0652 26.666 29.0508 22.0555 29.0508C17.7484 29.0508 17.2426 29.0797 16.9535 29.3109Z" fill="white"/>
<path d="M34.8898 29.3254C32.8953 30.0625 31.3777 31.6957 30.843 33.7336C30.7273 34.1383 30.6406 35.1645 30.6406 36.0027C30.6406 37.7371 30.9441 38.9945 31.5945 39.934C31.7969 40.2375 31.9414 40.5121 31.9125 40.5266C31.898 40.541 31.5078 40.6422 31.0598 40.7434C28.227 41.3504 25.8133 43.6773 25.0762 46.4957C24.9316 47.0594 24.8594 48.0422 24.8594 49.5164C24.8594 51.6699 24.8738 51.7277 25.2352 52.1613L25.6109 52.6094H36.8555H48.1145L48.5191 52.2625L48.9238 51.9156V49.4008C48.9094 47.1605 48.8805 46.7992 48.577 45.9609C48.1578 44.7613 47.1461 43.2437 46.2789 42.4922C45.4117 41.7406 43.7496 40.9312 42.6656 40.7289L41.7984 40.5699L42.232 39.9051C42.9402 38.7777 43.1426 37.8672 43.1281 35.8437C43.1137 34.3262 43.0703 33.907 42.7812 33.1699C42.1309 31.4789 41.0758 30.3371 39.4715 29.5855C38.6332 29.1809 38.3441 29.123 37.0723 29.0941C35.9449 29.0652 35.468 29.123 34.8898 29.3254ZM38.402 32.2449C39.7605 32.9098 40.4109 34.3262 40.2953 36.3496C40.2086 37.7371 39.8762 38.4742 39.0234 39.2113C37.4625 40.541 35.1355 40.1508 34.0371 38.3875C33.6469 37.7516 33.6035 37.5348 33.5457 36.3062C33.5168 35.5113 33.5746 34.6875 33.6758 34.3117C33.907 33.5168 34.7164 32.5629 35.468 32.216C36.2918 31.8402 37.607 31.8547 38.402 32.2449ZM40.1941 43.2727C42.9113 43.6773 43.6195 43.9375 44.6313 44.9637C45.5852 45.9465 45.9898 46.8859 46.0766 48.418L46.1488 49.7187H36.9277H27.7211L27.7789 48.3746C27.8367 46.7848 28.1691 45.9609 29.1953 44.9492C30.1781 43.9664 30.973 43.6484 33.459 43.2871C36.3063 42.8535 37.318 42.8535 40.1941 43.2727Z" fill="white"/>
<path d="M16.8957 34.6585C16.2742 35.2078 16.2453 36.1183 16.8234 36.682L17.1992 37.0722L19.8586 37.1156L22.518 37.1589L22.9805 36.7542C23.3563 36.4074 23.4574 36.2195 23.4719 35.7136C23.4863 35.1933 23.4141 35.0343 23.0094 34.673L22.5469 34.2539H19.9453H17.3438L16.8957 34.6585Z" fill="white"/>
<path d="M31.4066 66.4844C30.9586 66.6723 30.5828 67.3082 30.5828 67.9008C30.5828 68.2766 30.6984 68.4934 31.0453 68.8113L31.5078 69.2305H37H42.4922L42.9402 68.8258C43.2726 68.5223 43.3883 68.291 43.4027 67.9008C43.4172 67.2937 43.0559 66.6723 42.55 66.4844C42.0875 66.3109 31.8402 66.3109 31.4066 66.4844Z" fill="white"/>
<path d="M15.0457 16.968C13.7449 17.6906 14.323 19.6562 15.8406 19.6562C16.3898 19.6562 17.1992 18.8035 17.1992 18.2109C17.1992 17.8785 17.0691 17.6039 16.7078 17.257C16.173 16.7223 15.6527 16.6355 15.0457 16.968Z" fill="white"/>
</g>
<defs>
<clipPath id="clip0_54_21">
<rect width="74" height="74" fill="white"/>
</clipPath>
</defs>
</svg>
