<svg width="397" height="342" viewBox="0 0 397 342" fill="none" xmlns="http://www.w3.org/2000/svg">
<path d="M361 267.5C315 325.833 261.333 349.833 200 339.5C138.667 329.167 84.3333 300 37 252C-10.3333 204 -11.6667 153.667 33 101C77.6667 48.3333 133.833 15.8333 201.5 3.49999C269.167 -8.83334 324.167 17.5 366.5 82.5C408.833 147.5 407 209.167 361 267.5Z" fill="#F5F5F5"/>
<g clip-path="url(#clip0_213_9)">
<path d="M103.139 161.362C112.973 161.362 120.945 153.404 120.945 143.588C120.945 133.772 112.973 125.814 103.139 125.814C93.305 125.814 85.333 133.772 85.333 143.588C85.333 153.404 93.305 161.362 103.139 161.362Z" fill="#FF6584"/>
<path d="M139.604 243.984H139.585C138.959 243.983 138.357 243.734 137.914 243.291C137.471 242.849 137.221 242.249 137.221 241.623V103.041C137.221 102.415 137.471 101.815 137.914 101.373C138.357 100.93 138.959 100.681 139.585 100.681H256.437C257.064 100.681 257.665 100.93 258.108 101.373C258.552 101.815 258.801 102.415 258.802 103.041V210.796C258.801 211.419 258.554 212.016 258.115 212.458C257.675 212.9 257.079 213.151 256.455 213.157L139.604 243.984Z" fill="#F2F2F2"/>
<path d="M225.972 81.1014H171.72V49.7192C171.72 49.0565 171.984 48.4212 172.454 47.9526C172.923 47.4841 173.56 47.2205 174.224 47.2197H223.468C224.132 47.2205 224.769 47.4841 225.238 47.9526C225.707 48.4212 225.971 49.0565 225.972 49.7192V81.1014ZM172.276 80.546H225.416V49.7192C225.415 49.2038 225.21 48.7096 224.845 48.3452C224.48 47.9807 223.985 47.7757 223.468 47.7752H174.224C173.707 47.7757 173.212 47.9807 172.847 48.3452C172.482 48.7096 172.277 49.2038 172.276 49.7192V80.546Z" fill="#3F3D56"/>
<path d="M187.161 59.1616H210.531C211.121 59.1616 211.687 59.3957 212.105 59.8124C212.522 60.229 212.757 60.7941 212.757 61.3834V94.7096H184.935V61.3834C184.935 60.7941 185.17 60.229 185.587 59.8124C186.004 59.3957 186.57 59.1616 187.161 59.1616Z" fill="#E6E6E6"/>
<path d="M191.751 47.7751H180.344V36.3886C180.345 36.0204 180.492 35.6675 180.752 35.4072C181.013 35.1469 181.367 35.0004 181.736 35H190.36C190.729 35.0004 191.083 35.1469 191.343 35.4072C191.604 35.6675 191.751 36.0204 191.751 36.3886V47.7751ZM180.901 47.2196H191.195V36.3886C191.195 36.1677 191.107 35.9559 190.95 35.7997C190.794 35.6435 190.582 35.5557 190.36 35.5554H181.736C181.514 35.5557 181.302 35.6435 181.146 35.7997C180.989 35.9559 180.901 36.1677 180.901 36.3886V47.2196Z" fill="#3F3D56"/>
<path d="M285.486 215.195C285.375 215.195 285.267 215.195 285.156 215.192C278.273 215.116 271.655 212.534 266.545 207.931C266.356 207.759 266.168 207.585 265.982 207.409L265.896 207.327V154.101L265.923 154.045C266.107 153.655 266.294 153.271 266.481 152.887C272.268 141.159 279.017 134.701 285.486 134.701C294.814 134.701 302.049 147.474 305.531 155.088C310.374 165.676 313.755 178.796 313.755 186.993C313.753 194.419 310.818 201.544 305.586 206.824C300.354 212.103 293.248 215.11 285.809 215.192C285.705 215.195 285.594 215.195 285.486 215.195ZM266.453 207.089C266.607 207.234 266.763 207.378 266.918 207.519C271.929 212.032 278.418 214.563 285.166 214.637C285.279 214.64 285.385 214.637 285.493 214.64C285.594 214.64 285.698 214.64 285.799 214.637C300.909 214.47 313.199 202.069 313.199 186.993C313.199 178.867 309.838 165.842 305.025 155.319C301.598 147.826 294.503 135.257 285.486 135.257C279.24 135.257 272.668 141.605 266.981 153.131C266.804 153.494 266.627 153.857 266.453 154.226L266.453 207.089Z" fill="#3F3D56"/>
<path d="M285.484 248.868C285.4 248.868 285.318 248.834 285.258 248.774C285.198 248.714 285.164 248.633 285.164 248.548V183.321C285.164 183.279 285.172 183.237 285.188 183.198C285.204 183.159 285.228 183.124 285.257 183.094C285.287 183.064 285.323 183.04 285.361 183.024C285.4 183.008 285.442 183 285.484 183C285.527 183 285.568 183.008 285.607 183.024C285.646 183.04 285.682 183.064 285.711 183.094C285.741 183.124 285.765 183.159 285.781 183.198C285.797 183.237 285.805 183.279 285.804 183.321V248.548C285.804 248.633 285.771 248.714 285.711 248.774C285.651 248.834 285.569 248.868 285.484 248.868Z" fill="#CCCCCC"/>
<path d="M119.388 248.868C119.303 248.868 119.222 248.834 119.162 248.774C119.102 248.714 119.068 248.633 119.068 248.548V183.321C119.068 183.279 119.076 183.237 119.092 183.198C119.108 183.159 119.132 183.124 119.161 183.094C119.191 183.064 119.226 183.04 119.265 183.024C119.304 183.008 119.346 183 119.388 183C119.431 183 119.472 183.008 119.511 183.024C119.55 183.04 119.586 183.064 119.615 183.094C119.645 183.124 119.669 183.159 119.685 183.198C119.701 183.237 119.709 183.279 119.708 183.321V248.548C119.708 248.633 119.675 248.714 119.615 248.774C119.555 248.834 119.473 248.868 119.388 248.868Z" fill="#CCCCCC"/>
<path d="M285.485 195.508C285.439 195.508 285.393 195.498 285.352 195.479C285.31 195.46 285.273 195.432 285.243 195.398L269.144 176.865C269.088 176.801 269.061 176.718 269.067 176.633C269.073 176.549 269.112 176.471 269.176 176.415C269.24 176.36 269.324 176.332 269.409 176.338C269.493 176.344 269.572 176.383 269.628 176.447L285.726 194.979C285.766 195.025 285.792 195.082 285.801 195.143C285.81 195.203 285.801 195.265 285.776 195.321C285.75 195.377 285.709 195.424 285.658 195.457C285.606 195.49 285.546 195.508 285.485 195.508V195.508Z" fill="#CCCCCC"/>
<path d="M285.484 206.203C285.421 206.203 285.359 206.184 285.307 206.149C285.254 206.114 285.213 206.064 285.189 206.006C285.164 205.947 285.158 205.883 285.17 205.821C285.183 205.759 285.213 205.702 285.258 205.658L294.406 196.526C294.466 196.467 294.547 196.433 294.632 196.433C294.716 196.433 294.798 196.467 294.858 196.527C294.918 196.587 294.951 196.668 294.951 196.752C294.951 196.837 294.918 196.918 294.858 196.978L285.711 206.109C285.681 206.139 285.646 206.163 285.607 206.179C285.568 206.195 285.526 206.203 285.484 206.203Z" fill="#CCCCCC"/>
<path d="M315.1 249H291.172V248.722C291.171 247.153 291.48 245.6 292.081 244.15C292.682 242.701 293.563 241.383 294.674 240.274C295.785 239.164 297.104 238.284 298.556 237.684C300.008 237.083 301.564 236.774 303.136 236.774C304.707 236.774 306.264 237.083 307.716 237.684C309.167 238.284 310.487 239.164 311.598 240.274C312.709 241.383 313.59 242.701 314.191 244.15C314.792 245.6 315.101 247.153 315.1 248.722L315.1 249ZM291.731 248.445H314.54C314.467 245.473 313.234 242.648 311.103 240.573C308.972 238.497 306.113 237.335 303.136 237.335C300.158 237.335 297.299 238.497 295.168 240.573C293.037 242.648 291.804 245.473 291.731 248.445H291.731Z" fill="#3F3D56"/>
<path d="M303.136 241.944C303.052 241.944 302.972 241.977 302.912 242.036C302.853 242.096 302.82 242.176 302.82 242.259V245.609L299.551 242.808C299.52 242.781 299.484 242.761 299.444 242.748C299.405 242.735 299.363 242.73 299.322 242.733C299.28 242.736 299.24 242.747 299.203 242.766C299.166 242.784 299.133 242.81 299.105 242.842C299.078 242.873 299.058 242.91 299.045 242.949C299.032 242.988 299.027 243.03 299.03 243.071C299.033 243.113 299.045 243.153 299.064 243.19C299.082 243.227 299.108 243.26 299.14 243.287L302.82 246.439V248.407C302.82 248.449 302.828 248.49 302.844 248.528C302.859 248.566 302.883 248.601 302.912 248.631C302.941 248.66 302.976 248.683 303.015 248.699C303.053 248.715 303.094 248.723 303.136 248.723C303.177 248.723 303.218 248.715 303.257 248.699C303.295 248.683 303.33 248.66 303.359 248.631C303.389 248.601 303.412 248.566 303.428 248.528C303.444 248.49 303.452 248.449 303.452 248.407V242.259C303.452 242.176 303.418 242.096 303.359 242.036C303.3 241.977 303.219 241.944 303.136 241.944Z" fill="#3F3D56"/>
<path d="M114.505 249H90.5766V248.722C90.5758 247.153 90.8847 245.6 91.4857 244.15C92.0866 242.701 92.9677 241.383 94.0788 240.274C95.1898 239.164 96.509 238.284 97.9609 237.684C99.4128 237.083 100.969 236.774 102.541 236.774C104.112 236.774 105.669 237.083 107.12 237.684C108.572 238.284 109.892 239.164 111.003 240.274C112.114 241.383 112.995 242.701 113.596 244.15C114.197 245.6 114.506 247.153 114.505 248.722L114.505 249ZM91.1364 248.445H113.945C113.872 245.473 112.639 242.648 110.508 240.573C108.377 238.497 105.518 237.335 102.541 237.335C99.5633 237.335 96.704 238.497 94.5732 240.573C92.4424 242.648 91.209 245.473 91.1364 248.445H91.1364Z" fill="#3F3D56"/>
<path d="M102.541 241.944C102.457 241.944 102.377 241.977 102.317 242.036C102.258 242.096 102.225 242.176 102.225 242.259V245.609L98.9564 242.808C98.925 242.781 98.8885 242.761 98.849 242.748C98.8096 242.735 98.768 242.73 98.7265 242.733C98.6851 242.736 98.6447 242.747 98.6076 242.766C98.5705 242.784 98.5375 242.81 98.5105 242.842C98.4834 242.873 98.4628 242.91 98.4499 242.949C98.437 242.988 98.432 243.03 98.4352 243.071C98.4384 243.113 98.4498 243.153 98.4686 243.19C98.4874 243.227 98.5134 243.26 98.545 243.287L102.225 246.439V248.407C102.225 248.449 102.233 248.49 102.249 248.528C102.264 248.566 102.288 248.601 102.317 248.631C102.346 248.66 102.381 248.683 102.42 248.699C102.458 248.715 102.499 248.723 102.541 248.723C102.582 248.723 102.623 248.715 102.662 248.699C102.7 248.683 102.735 248.66 102.764 248.631C102.794 248.601 102.817 248.566 102.833 248.528C102.849 248.49 102.857 248.449 102.857 248.407V242.259C102.857 242.176 102.823 242.096 102.764 242.036C102.705 241.977 102.624 241.944 102.541 241.944Z" fill="#3F3D56"/>
<path d="M119.668 215.195C119.557 215.195 119.449 215.195 119.338 215.192C111.9 215.109 104.795 212.101 99.5641 206.822C94.3331 201.543 91.398 194.418 91.3954 186.993C91.3954 178.795 94.7774 165.676 99.6199 155.088C103.102 147.474 110.338 134.701 119.668 134.701C123.511 134.701 127.381 136.888 131.17 141.2C131.358 141.413 131.546 141.632 131.732 141.856L131.795 141.933V212.47L131.638 212.546C131.451 212.636 131.261 212.721 131.071 212.803C127.58 214.346 123.809 215.159 119.991 215.192C119.887 215.195 119.776 215.195 119.668 215.195ZM119.668 135.257C110.649 135.257 103.553 147.826 100.126 155.319C95.3132 165.842 91.9518 178.867 91.9518 186.993C91.9518 202.066 104.242 214.467 119.348 214.637C119.461 214.64 119.566 214.641 119.675 214.64C119.776 214.64 119.88 214.64 119.981 214.637C123.725 214.604 127.424 213.807 130.848 212.295C130.98 212.238 131.11 212.18 131.239 212.12V142.133C131.078 141.94 130.915 141.751 130.752 141.567C127.073 137.38 123.344 135.257 119.668 135.257Z" fill="#3F3D56"/>
<path d="M119.667 195.508C119.621 195.508 119.575 195.498 119.534 195.479C119.492 195.46 119.455 195.432 119.425 195.398L103.326 176.865C103.271 176.801 103.243 176.718 103.249 176.633C103.255 176.549 103.295 176.471 103.359 176.415C103.423 176.36 103.506 176.332 103.591 176.338C103.675 176.344 103.754 176.383 103.81 176.447L119.908 194.979C119.949 195.025 119.975 195.082 119.983 195.143C119.992 195.203 119.983 195.265 119.958 195.321C119.932 195.377 119.891 195.424 119.84 195.457C119.788 195.49 119.728 195.508 119.667 195.508V195.508Z" fill="#CCCCCC"/>
<path d="M119.667 206.203C119.603 206.203 119.541 206.184 119.489 206.149C119.436 206.114 119.395 206.064 119.371 206.006C119.347 205.947 119.34 205.883 119.353 205.821C119.365 205.759 119.396 205.702 119.44 205.658L128.588 196.526C128.648 196.467 128.729 196.433 128.814 196.433C128.899 196.433 128.98 196.467 129.04 196.527C129.1 196.587 129.133 196.668 129.134 196.752C129.134 196.837 129.1 196.918 129.04 196.978L119.893 206.109C119.863 206.139 119.828 206.163 119.789 206.179C119.75 206.195 119.709 206.203 119.667 206.203Z" fill="#CCCCCC"/>
<path d="M144.805 83.3231L145.011 83.7286C145.102 83.9035 145.15 84.0978 145.15 84.2951V95.265H154.887V84.2951C154.888 84.0978 154.935 83.9035 155.027 83.7286L155.233 83.3231H144.805ZM154.331 84.2951V94.7096H145.706V84.2951C145.706 84.1547 145.69 84.0149 145.656 83.8785H154.381C154.348 84.0149 154.331 84.1547 154.331 84.2951ZM157.046 83.3231L157.252 83.7286C157.344 83.9035 157.391 84.0978 157.391 84.2951V95.265H167.129V84.2951C167.129 84.0978 167.177 83.9035 167.268 83.7286L167.474 83.3231H157.046ZM166.573 84.2951V94.7096H157.948V84.2951C157.948 84.1547 157.931 84.0149 157.898 83.8785H166.623C166.589 84.0149 166.572 84.1547 166.573 84.2951ZM169.288 83.3231L169.494 83.7286C169.585 83.9035 169.633 84.0978 169.633 84.2951V95.265H179.371V84.2951C179.371 84.0978 179.418 83.9035 179.51 83.7286L179.716 83.3231H169.288ZM178.814 84.2951V94.7096H170.189V84.2951C170.19 84.1547 170.173 84.0149 170.139 83.8785H178.864C178.831 84.0149 178.814 84.1547 178.814 84.2951ZM181.53 83.3231L181.735 83.7286C181.827 83.9035 181.874 84.0978 181.875 84.2951V95.265H191.612V84.2951C191.612 84.0978 191.66 83.9035 191.751 83.7286L191.957 83.3231H181.53ZM191.056 84.2951V94.7096H182.431V84.2951C182.431 84.1547 182.414 84.0149 182.381 83.8785H191.106C191.072 84.0149 191.056 84.1547 191.056 84.2951ZM193.771 83.3231L193.977 83.7286C194.068 83.9035 194.116 84.0978 194.116 84.2951V95.265H203.854V84.2951C203.854 84.0978 203.902 83.9035 203.993 83.7286L204.199 83.3231H193.771ZM203.297 84.2951V94.7096H194.673V84.2951C194.673 84.1547 194.656 84.0149 194.622 83.8785H203.348C203.314 84.0149 203.297 84.1547 203.297 84.2951ZM206.013 83.3231L206.219 83.7286C206.31 83.9035 206.358 84.0978 206.358 84.2951V95.265H216.095V84.2951C216.096 84.0978 216.143 83.9035 216.235 83.7286L216.44 83.3231H206.013ZM215.539 84.2951V94.7096H206.914V84.2951C206.914 84.1547 206.898 84.0149 206.864 83.8785H215.589C215.556 84.0149 215.539 84.1547 215.539 84.2951ZM218.254 83.3231L218.46 83.7286C218.552 83.9035 218.599 84.0978 218.599 84.2951V95.265H228.337V84.2951C228.337 84.0978 228.385 83.9035 228.476 83.7286L228.682 83.3231H218.254ZM227.781 84.2951V94.7096H219.156V84.2951C219.156 84.1547 219.139 84.0149 219.106 83.8785H227.831C227.797 84.0149 227.78 84.1547 227.781 84.2951ZM230.496 83.3231L230.702 83.7286C230.793 83.9035 230.841 84.0978 230.841 84.2951V95.265H240.579V84.2951C240.579 84.0978 240.626 83.9035 240.718 83.7286L240.924 83.3231H230.496ZM240.022 84.2951V94.7096H231.397V84.2951C231.398 84.1547 231.381 84.0149 231.347 83.8785H240.072C240.039 84.0149 240.022 84.1547 240.022 84.2951ZM242.737 83.3231L242.943 83.7286C243.035 83.9035 243.082 84.0978 243.083 84.2951V95.265H252.82V84.2951C252.82 84.0978 252.868 83.9035 252.959 83.7286L253.165 83.3231H242.737ZM252.264 84.2951V94.7096H243.639V84.2951C243.639 84.1547 243.622 84.0149 243.589 83.8785H252.314C252.28 84.0149 252.264 84.1547 252.264 84.2951ZM242.737 83.3231L242.943 83.7286C243.035 83.9035 243.082 84.0978 243.083 84.2951V95.265H252.82V84.2951C252.82 84.0978 252.868 83.9035 252.959 83.7286L253.165 83.3231H242.737ZM252.264 84.2951V94.7096H243.639V84.2951C243.639 84.1547 243.622 84.0149 243.589 83.8785H252.314C252.28 84.0149 252.264 84.1547 252.264 84.2951ZM230.496 83.3231L230.702 83.7286C230.793 83.9035 230.841 84.0978 230.841 84.2951V95.265H240.579V84.2951C240.579 84.0978 240.626 83.9035 240.718 83.7286L240.924 83.3231H230.496ZM240.022 84.2951V94.7096H231.397V84.2951C231.398 84.1547 231.381 84.0149 231.347 83.8785H240.072C240.039 84.0149 240.022 84.1547 240.022 84.2951ZM218.254 83.3231L218.46 83.7286C218.552 83.9035 218.599 84.0978 218.599 84.2951V95.265H228.337V84.2951C228.337 84.0978 228.385 83.9035 228.476 83.7286L228.682 83.3231H218.254ZM227.781 84.2951V94.7096H219.156V84.2951C219.156 84.1547 219.139 84.0149 219.106 83.8785H227.831C227.797 84.0149 227.78 84.1547 227.781 84.2951ZM206.013 83.3231L206.219 83.7286C206.31 83.9035 206.358 84.0978 206.358 84.2951V95.265H216.095V84.2951C216.096 84.0978 216.143 83.9035 216.235 83.7286L216.44 83.3231H206.013ZM215.539 84.2951V94.7096H206.914V84.2951C206.914 84.1547 206.898 84.0149 206.864 83.8785H215.589C215.556 84.0149 215.539 84.1547 215.539 84.2951ZM193.771 83.3231L193.977 83.7286C194.068 83.9035 194.116 84.0978 194.116 84.2951V95.265H203.854V84.2951C203.854 84.0978 203.902 83.9035 203.993 83.7286L204.199 83.3231H193.771ZM203.297 84.2951V94.7096H194.673V84.2951C194.673 84.1547 194.656 84.0149 194.622 83.8785H203.348C203.314 84.0149 203.297 84.1547 203.297 84.2951ZM181.53 83.3231L181.735 83.7286C181.827 83.9035 181.874 84.0978 181.875 84.2951V95.265H191.612V84.2951C191.612 84.0978 191.66 83.9035 191.751 83.7286L191.957 83.3231H181.53ZM191.056 84.2951V94.7096H182.431V84.2951C182.431 84.1547 182.414 84.0149 182.381 83.8785H191.106C191.072 84.0149 191.056 84.1547 191.056 84.2951ZM169.288 83.3231L169.494 83.7286C169.585 83.9035 169.633 84.0978 169.633 84.2951V95.265H179.371V84.2951C179.371 84.0978 179.418 83.9035 179.51 83.7286L179.716 83.3231H169.288ZM178.814 84.2951V94.7096H170.189V84.2951C170.19 84.1547 170.173 84.0149 170.139 83.8785H178.864C178.831 84.0149 178.814 84.1547 178.814 84.2951ZM157.046 83.3231L157.252 83.7286C157.344 83.9035 157.391 84.0978 157.391 84.2951V95.265H167.129V84.2951C167.129 84.0978 167.177 83.9035 167.268 83.7286L167.474 83.3231H157.046ZM166.573 84.2951V94.7096H157.948V84.2951C157.948 84.1547 157.931 84.0149 157.898 83.8785H166.623C166.589 84.0149 166.572 84.1547 166.573 84.2951ZM144.805 83.3231L145.011 83.7286C145.102 83.9035 145.15 84.0978 145.15 84.2951V95.265H154.887V84.2951C154.888 84.0978 154.935 83.9035 155.027 83.7286L155.233 83.3231H144.805ZM154.331 84.2951V94.7096H145.706V84.2951C145.706 84.1547 145.69 84.0149 145.656 83.8785H154.381C154.348 84.0149 154.331 84.1547 154.331 84.2951ZM242.737 83.3231L242.943 83.7286C243.035 83.9035 243.082 84.0978 243.083 84.2951V95.265H252.82V84.2951C252.82 84.0978 252.868 83.9035 252.959 83.7286L253.165 83.3231H242.737ZM252.264 84.2951V94.7096H243.639V84.2951C243.639 84.1547 243.622 84.0149 243.589 83.8785H252.314C252.28 84.0149 252.264 84.1547 252.264 84.2951ZM230.496 83.3231L230.702 83.7286C230.793 83.9035 230.841 84.0978 230.841 84.2951V95.265H240.579V84.2951C240.579 84.0978 240.626 83.9035 240.718 83.7286L240.924 83.3231H230.496ZM240.022 84.2951V94.7096H231.397V84.2951C231.398 84.1547 231.381 84.0149 231.347 83.8785H240.072C240.039 84.0149 240.022 84.1547 240.022 84.2951ZM218.254 83.3231L218.46 83.7286C218.552 83.9035 218.599 84.0978 218.599 84.2951V95.265H228.337V84.2951C228.337 84.0978 228.385 83.9035 228.476 83.7286L228.682 83.3231H218.254ZM227.781 84.2951V94.7096H219.156V84.2951C219.156 84.1547 219.139 84.0149 219.106 83.8785H227.831C227.797 84.0149 227.78 84.1547 227.781 84.2951ZM206.013 83.3231L206.219 83.7286C206.31 83.9035 206.358 84.0978 206.358 84.2951V95.265H216.095V84.2951C216.096 84.0978 216.143 83.9035 216.235 83.7286L216.44 83.3231H206.013ZM215.539 84.2951V94.7096H206.914V84.2951C206.914 84.1547 206.898 84.0149 206.864 83.8785H215.589C215.556 84.0149 215.539 84.1547 215.539 84.2951ZM193.771 83.3231L193.977 83.7286C194.068 83.9035 194.116 84.0978 194.116 84.2951V95.265H203.854V84.2951C203.854 84.0978 203.902 83.9035 203.993 83.7286L204.199 83.3231H193.771ZM203.297 84.2951V94.7096H194.673V84.2951C194.673 84.1547 194.656 84.0149 194.622 83.8785H203.348C203.314 84.0149 203.297 84.1547 203.297 84.2951ZM181.53 83.3231L181.735 83.7286C181.827 83.9035 181.874 84.0978 181.875 84.2951V95.265H191.612V84.2951C191.612 84.0978 191.66 83.9035 191.751 83.7286L191.957 83.3231H181.53ZM191.056 84.2951V94.7096H182.431V84.2951C182.431 84.1547 182.414 84.0149 182.381 83.8785H191.106C191.072 84.0149 191.056 84.1547 191.056 84.2951ZM169.288 83.3231L169.494 83.7286C169.585 83.9035 169.633 84.0978 169.633 84.2951V95.265H179.371V84.2951C179.371 84.0978 179.418 83.9035 179.51 83.7286L179.716 83.3231H169.288ZM178.814 84.2951V94.7096H170.189V84.2951C170.19 84.1547 170.173 84.0149 170.139 83.8785H178.864C178.831 84.0149 178.814 84.1547 178.814 84.2951ZM157.046 83.3231L157.252 83.7286C157.344 83.9035 157.391 84.0978 157.391 84.2951V95.265H167.129V84.2951C167.129 84.0978 167.177 83.9035 167.268 83.7286L167.474 83.3231H157.046ZM166.573 84.2951V94.7096H157.948V84.2951C157.948 84.1547 157.931 84.0149 157.898 83.8785H166.623C166.589 84.0149 166.572 84.1547 166.573 84.2951ZM144.805 83.3231L145.011 83.7286C145.102 83.9035 145.15 84.0978 145.15 84.2951V95.265H154.887V84.2951C154.888 84.0978 154.935 83.9035 155.027 83.7286L155.233 83.3231H144.805ZM154.331 84.2951V94.7096H145.706V84.2951C145.706 84.1547 145.69 84.0149 145.656 83.8785H154.381C154.348 84.0149 154.331 84.1547 154.331 84.2951ZM242.737 83.3231L242.943 83.7286C243.035 83.9035 243.082 84.0978 243.083 84.2951V95.265H252.82V84.2951C252.82 84.0978 252.868 83.9035 252.959 83.7286L253.165 83.3231H242.737ZM252.264 84.2951V94.7096H243.639V84.2951C243.639 84.1547 243.622 84.0149 243.589 83.8785H252.314C252.28 84.0149 252.264 84.1547 252.264 84.2951ZM230.496 83.3231L230.702 83.7286C230.793 83.9035 230.841 84.0978 230.841 84.2951V95.265H240.579V84.2951C240.579 84.0978 240.626 83.9035 240.718 83.7286L240.924 83.3231H230.496ZM240.022 84.2951V94.7096H231.397V84.2951C231.398 84.1547 231.381 84.0149 231.347 83.8785H240.072C240.039 84.0149 240.022 84.1547 240.022 84.2951ZM218.254 83.3231L218.46 83.7286C218.552 83.9035 218.599 84.0978 218.599 84.2951V95.265H228.337V84.2951C228.337 84.0978 228.385 83.9035 228.476 83.7286L228.682 83.3231H218.254ZM227.781 84.2951V94.7096H219.156V84.2951C219.156 84.1547 219.139 84.0149 219.106 83.8785H227.831C227.797 84.0149 227.78 84.1547 227.781 84.2951ZM206.013 83.3231L206.219 83.7286C206.31 83.9035 206.358 84.0978 206.358 84.2951V95.265H216.095V84.2951C216.096 84.0978 216.143 83.9035 216.235 83.7286L216.44 83.3231H206.013ZM215.539 84.2951V94.7096H206.914V84.2951C206.914 84.1547 206.898 84.0149 206.864 83.8785H215.589C215.556 84.0149 215.539 84.1547 215.539 84.2951ZM193.771 83.3231L193.977 83.7286C194.068 83.9035 194.116 84.0978 194.116 84.2951V95.265H203.854V84.2951C203.854 84.0978 203.902 83.9035 203.993 83.7286L204.199 83.3231H193.771ZM203.297 84.2951V94.7096H194.673V84.2951C194.673 84.1547 194.656 84.0149 194.622 83.8785H203.348C203.314 84.0149 203.297 84.1547 203.297 84.2951ZM181.53 83.3231L181.735 83.7286C181.827 83.9035 181.874 84.0978 181.875 84.2951V95.265H191.612V84.2951C191.612 84.0978 191.66 83.9035 191.751 83.7286L191.957 83.3231H181.53ZM191.056 84.2951V94.7096H182.431V84.2951C182.431 84.1547 182.414 84.0149 182.381 83.8785H191.106C191.072 84.0149 191.056 84.1547 191.056 84.2951ZM169.288 83.3231L169.494 83.7286C169.585 83.9035 169.633 84.0978 169.633 84.2951V95.265H179.371V84.2951C179.371 84.0978 179.418 83.9035 179.51 83.7286L179.716 83.3231H169.288ZM178.814 84.2951V94.7096H170.189V84.2951C170.19 84.1547 170.173 84.0149 170.139 83.8785H178.864C178.831 84.0149 178.814 84.1547 178.814 84.2951ZM157.046 83.3231L157.252 83.7286C157.344 83.9035 157.391 84.0978 157.391 84.2951V95.265H167.129V84.2951C167.129 84.0978 167.177 83.9035 167.268 83.7286L167.474 83.3231H157.046ZM166.573 84.2951V94.7096H157.948V84.2951C157.948 84.1547 157.931 84.0149 157.898 83.8785H166.623C166.589 84.0149 166.572 84.1547 166.573 84.2951ZM144.805 83.3231L145.011 83.7286C145.102 83.9035 145.15 84.0978 145.15 84.2951V95.265H154.887V84.2951C154.888 84.0978 154.935 83.9035 155.027 83.7286L155.233 83.3231H144.805ZM154.331 84.2951V94.7096H145.706V84.2951C145.706 84.1547 145.69 84.0149 145.656 83.8785H154.381C154.348 84.0149 154.331 84.1547 154.331 84.2951ZM242.737 83.3231L242.943 83.7286C243.035 83.9035 243.082 84.0978 243.083 84.2951V95.265H252.82V84.2951C252.82 84.0978 252.868 83.9035 252.959 83.7286L253.165 83.3231H242.737ZM252.264 84.2951V94.7096H243.639V84.2951C243.639 84.1547 243.622 84.0149 243.589 83.8785H252.314C252.28 84.0149 252.264 84.1547 252.264 84.2951ZM230.496 83.3231L230.702 83.7286C230.793 83.9035 230.841 84.0978 230.841 84.2951V95.265H240.579V84.2951C240.579 84.0978 240.626 83.9035 240.718 83.7286L240.924 83.3231H230.496ZM240.022 84.2951V94.7096H231.397V84.2951C231.398 84.1547 231.381 84.0149 231.347 83.8785H240.072C240.039 84.0149 240.022 84.1547 240.022 84.2951ZM218.254 83.3231L218.46 83.7286C218.552 83.9035 218.599 84.0978 218.599 84.2951V95.265H228.337V84.2951C228.337 84.0978 228.385 83.9035 228.476 83.7286L228.682 83.3231H218.254ZM227.781 84.2951V94.7096H219.156V84.2951C219.156 84.1547 219.139 84.0149 219.106 83.8785H227.831C227.797 84.0149 227.78 84.1547 227.781 84.2951ZM206.013 83.3231L206.219 83.7286C206.31 83.9035 206.358 84.0978 206.358 84.2951V95.265H216.095V84.2951C216.096 84.0978 216.143 83.9035 216.235 83.7286L216.44 83.3231H206.013ZM215.539 84.2951V94.7096H206.914V84.2951C206.914 84.1547 206.898 84.0149 206.864 83.8785H215.589C215.556 84.0149 215.539 84.1547 215.539 84.2951ZM193.771 83.3231L193.977 83.7286C194.068 83.9035 194.116 84.0978 194.116 84.2951V95.265H203.854V84.2951C203.854 84.0978 203.902 83.9035 203.993 83.7286L204.199 83.3231H193.771ZM203.297 84.2951V94.7096H194.673V84.2951C194.673 84.1547 194.656 84.0149 194.622 83.8785H203.348C203.314 84.0149 203.297 84.1547 203.297 84.2951ZM181.53 83.3231L181.735 83.7286C181.827 83.9035 181.874 84.0978 181.875 84.2951V95.265H191.612V84.2951C191.612 84.0978 191.66 83.9035 191.751 83.7286L191.957 83.3231H181.53ZM191.056 84.2951V94.7096H182.431V84.2951C182.431 84.1547 182.414 84.0149 182.381 83.8785H191.106C191.072 84.0149 191.056 84.1547 191.056 84.2951ZM169.288 83.3231L169.494 83.7286C169.585 83.9035 169.633 84.0978 169.633 84.2951V95.265H179.371V84.2951C179.371 84.0978 179.418 83.9035 179.51 83.7286L179.716 83.3231H169.288ZM178.814 84.2951V94.7096H170.189V84.2951C170.19 84.1547 170.173 84.0149 170.139 83.8785H178.864C178.831 84.0149 178.814 84.1547 178.814 84.2951ZM157.046 83.3231L157.252 83.7286C157.344 83.9035 157.391 84.0978 157.391 84.2951V95.265H167.129V84.2951C167.129 84.0978 167.177 83.9035 167.268 83.7286L167.474 83.3231H157.046ZM166.573 84.2951V94.7096H157.948V84.2951C157.948 84.1547 157.931 84.0149 157.898 83.8785H166.623C166.589 84.0149 166.572 84.1547 166.573 84.2951ZM144.805 83.3231L145.011 83.7286C145.102 83.9035 145.15 84.0978 145.15 84.2951V95.265H154.887V84.2951C154.888 84.0978 154.935 83.9035 155.027 83.7286L155.233 83.3231H144.805ZM154.331 84.2951V94.7096H145.706V84.2951C145.706 84.1547 145.69 84.0149 145.656 83.8785H154.381C154.348 84.0149 154.331 84.1547 154.331 84.2951ZM242.737 83.3231L242.943 83.7286C243.035 83.9035 243.082 84.0978 243.083 84.2951V95.265H252.82V84.2951C252.82 84.0978 252.868 83.9035 252.959 83.7286L253.165 83.3231H242.737ZM252.264 84.2951V94.7096H243.639V84.2951C243.639 84.1547 243.622 84.0149 243.589 83.8785H252.314C252.28 84.0149 252.264 84.1547 252.264 84.2951ZM230.702 83.7286C230.793 83.9035 230.841 84.0978 230.841 84.2951V95.265H240.579V84.2951C240.579 84.0978 240.626 83.9035 240.718 83.7286L240.924 83.3231H230.496L230.702 83.7286ZM240.072 83.8785C240.039 84.0149 240.022 84.1547 240.022 84.2951V94.7096H231.397V84.2951C231.398 84.1547 231.381 84.0149 231.347 83.8785H240.072ZM218.46 83.7286C218.552 83.9035 218.599 84.0978 218.599 84.2951V95.265H228.337V84.2951C228.337 84.0978 228.385 83.9035 228.476 83.7286L228.682 83.3231H218.254L218.46 83.7286ZM227.831 83.8785C227.797 84.0149 227.78 84.1547 227.781 84.2951V94.7096H219.156V84.2951C219.156 84.1547 219.139 84.0149 219.106 83.8785H227.831ZM206.219 83.7286C206.31 83.9035 206.358 84.0978 206.358 84.2951V95.265H216.095V84.2951C216.096 84.0978 216.143 83.9035 216.235 83.7286L216.44 83.3231H206.013L206.219 83.7286ZM215.589 83.8785C215.556 84.0149 215.539 84.1547 215.539 84.2951V94.7096H206.914V84.2951C206.914 84.1547 206.898 84.0149 206.864 83.8785H215.589ZM193.977 83.7286C194.068 83.9035 194.116 84.0978 194.116 84.2951V95.265H203.854V84.2951C203.854 84.0978 203.902 83.9035 203.993 83.7286L204.199 83.3231H193.771L193.977 83.7286ZM203.348 83.8785C203.314 84.0149 203.297 84.1547 203.297 84.2951V94.7096H194.673V84.2951C194.673 84.1547 194.656 84.0149 194.622 83.8785H203.348ZM181.735 83.7286C181.827 83.9035 181.874 84.0978 181.875 84.2951V95.265H191.612V84.2951C191.612 84.0978 191.66 83.9035 191.751 83.7286L191.957 83.3231H181.53L181.735 83.7286ZM191.106 83.8785C191.072 84.0149 191.056 84.1547 191.056 84.2951V94.7096H182.431V84.2951C182.431 84.1547 182.414 84.0149 182.381 83.8785H191.106ZM169.494 83.7286C169.585 83.9035 169.633 84.0978 169.633 84.2951V95.265H179.371V84.2951C179.371 84.0978 179.418 83.9035 179.51 83.7286L179.716 83.3231H169.288L169.494 83.7286ZM178.864 83.8785C178.831 84.0149 178.814 84.1547 178.814 84.2951V94.7096H170.189V84.2951C170.19 84.1547 170.173 84.0149 170.139 83.8785H178.864ZM157.252 83.7286C157.344 83.9035 157.391 84.0978 157.391 84.2951V95.265H167.129V84.2951C167.129 84.0978 167.177 83.9035 167.268 83.7286L167.474 83.3231H157.046L157.252 83.7286ZM166.623 83.8785C166.589 84.0149 166.572 84.1547 166.573 84.2951V94.7096H157.948V84.2951C157.948 84.1547 157.931 84.0149 157.898 83.8785H166.623ZM145.011 83.7286C145.102 83.9035 145.15 84.0978 145.15 84.2951V95.265H154.887V84.2951C154.888 84.0978 154.935 83.9035 155.027 83.7286L155.233 83.3231H144.805L145.011 83.7286ZM154.381 83.8785C154.348 84.0149 154.331 84.1547 154.331 84.2951V94.7096H145.706V84.2951C145.706 84.1547 145.69 84.0149 145.656 83.8785H154.381ZM242.943 83.7286C243.035 83.9035 243.082 84.0978 243.083 84.2951V95.265H252.82V84.2951C252.82 84.0978 252.868 83.9035 252.959 83.7286L253.165 83.3231H242.737L242.943 83.7286ZM252.314 83.8785C252.28 84.0149 252.264 84.1547 252.264 84.2951V94.7096H243.639V84.2951C243.639 84.1547 243.622 84.0149 243.589 83.8785H252.314ZM230.702 83.7286C230.793 83.9035 230.841 84.0978 230.841 84.2951V95.265H240.579V84.2951C240.579 84.0978 240.626 83.9035 240.718 83.7286L240.924 83.3231H230.496L230.702 83.7286ZM240.072 83.8785C240.039 84.0149 240.022 84.1547 240.022 84.2951V94.7096H231.397V84.2951C231.398 84.1547 231.381 84.0149 231.347 83.8785H240.072ZM218.46 83.7286C218.552 83.9035 218.599 84.0978 218.599 84.2951V95.265H228.337V84.2951C228.337 84.0978 228.385 83.9035 228.476 83.7286L228.682 83.3231H218.254L218.46 83.7286ZM227.831 83.8785C227.797 84.0149 227.78 84.1547 227.781 84.2951V94.7096H219.156V84.2951C219.156 84.1547 219.139 84.0149 219.106 83.8785H227.831ZM206.219 83.7286C206.31 83.9035 206.358 84.0978 206.358 84.2951V95.265H216.095V84.2951C216.096 84.0978 216.143 83.9035 216.235 83.7286L216.44 83.3231H206.013L206.219 83.7286ZM215.589 83.8785C215.556 84.0149 215.539 84.1547 215.539 84.2951V94.7096H206.914V84.2951C206.914 84.1547 206.898 84.0149 206.864 83.8785H215.589ZM193.977 83.7286C194.068 83.9035 194.116 84.0978 194.116 84.2951V95.265H203.854V84.2951C203.854 84.0978 203.902 83.9035 203.993 83.7286L204.199 83.3231H193.771L193.977 83.7286ZM203.348 83.8785C203.314 84.0149 203.297 84.1547 203.297 84.2951V94.7096H194.673V84.2951C194.673 84.1547 194.656 84.0149 194.622 83.8785H203.348ZM181.735 83.7286C181.827 83.9035 181.874 84.0978 181.875 84.2951V95.265H191.612V84.2951C191.612 84.0978 191.66 83.9035 191.751 83.7286L191.957 83.3231H181.53L181.735 83.7286ZM191.106 83.8785C191.072 84.0149 191.056 84.1547 191.056 84.2951V94.7096H182.431V84.2951C182.431 84.1547 182.414 84.0149 182.381 83.8785H191.106ZM169.494 83.7286C169.585 83.9035 169.633 84.0978 169.633 84.2951V95.265H179.371V84.2951C179.371 84.0978 179.418 83.9035 179.51 83.7286L179.716 83.3231H169.288L169.494 83.7286ZM178.864 83.8785C178.831 84.0149 178.814 84.1547 178.814 84.2951V94.7096H170.189V84.2951C170.19 84.1547 170.173 84.0149 170.139 83.8785H178.864ZM157.252 83.7286C157.344 83.9035 157.391 84.0978 157.391 84.2951V95.265H167.129V84.2951C167.129 84.0978 167.177 83.9035 167.268 83.7286L167.474 83.3231H157.046L157.252 83.7286ZM166.623 83.8785C166.589 84.0149 166.572 84.1547 166.573 84.2951V94.7096H157.948V84.2951C157.948 84.1547 157.931 84.0149 157.898 83.8785H166.623ZM145.011 83.7286C145.102 83.9035 145.15 84.0978 145.15 84.2951V95.265H154.887V84.2951C154.888 84.0978 154.935 83.9035 155.027 83.7286L155.233 83.3231H144.805L145.011 83.7286ZM154.381 83.8785C154.348 84.0149 154.331 84.1547 154.331 84.2951V94.7096H145.706V84.2951C145.706 84.1547 145.69 84.0149 145.656 83.8785H154.381ZM263.949 96.9313H260.633C260.45 96.2924 260.064 95.7302 259.533 95.3295C259.002 94.9287 258.355 94.7111 257.689 94.7096H255.881V84.2951C255.881 84.0715 255.839 83.8499 255.755 83.6425C256.071 83.4572 256.316 83.1735 256.454 82.8351C256.591 82.4968 256.614 82.1226 256.517 81.7704C256.421 81.4181 256.211 81.1074 255.92 80.8861C255.629 80.6648 255.273 80.5452 254.907 80.5459H143.063C142.697 80.5452 142.341 80.6648 142.05 80.8861C141.759 81.1074 141.549 81.4181 141.453 81.7704C141.356 82.1226 141.379 82.4968 141.516 82.8351C141.654 83.1735 141.899 83.4572 142.215 83.6425C142.131 83.8499 142.089 84.0715 142.089 84.2951V94.7096H140.281C139.615 94.7112 138.968 94.9287 138.437 95.3295C137.906 95.7302 137.52 96.2924 137.337 96.9313H133.743C133.079 96.9323 132.443 97.196 131.973 97.6645C131.504 98.133 131.24 98.7682 131.239 99.4308V246.066C131.24 246.729 131.505 247.364 131.974 247.832C132.443 248.301 133.079 248.564 133.743 248.566H263.949C264.613 248.565 265.249 248.301 265.718 247.833C266.188 247.364 266.452 246.729 266.453 246.066V99.4308C266.452 98.7682 266.188 98.133 265.718 97.6645C265.249 97.196 264.613 96.9323 263.949 96.9313ZM265.896 246.066C265.896 246.463 265.774 246.85 265.547 247.176C265.319 247.502 264.998 247.75 264.625 247.888C264.409 247.97 264.18 248.012 263.949 248.01H133.743C133.512 248.012 133.283 247.97 133.067 247.888C132.694 247.75 132.372 247.502 132.145 247.176C131.918 246.85 131.796 246.463 131.795 246.066V99.4308C131.796 98.9154 132.001 98.4212 132.366 98.0568C132.732 97.6923 133.227 97.4873 133.743 97.4868H137.783L137.827 97.2646C137.944 96.7008 138.252 96.1943 138.699 95.8302C139.146 95.4661 139.704 95.2665 140.281 95.265H142.646V84.2951C142.646 84.0691 142.708 83.8474 142.824 83.6536L142.996 83.3675L142.682 83.2509C142.436 83.162 142.23 82.9894 142.099 82.7635C141.968 82.5377 141.922 82.273 141.967 82.0161C142.013 81.7593 142.148 81.5267 142.348 81.3594C142.549 81.192 142.802 81.1006 143.063 81.1013H254.907C255.168 81.1006 255.421 81.192 255.622 81.3594C255.822 81.5267 255.957 81.7593 256.003 82.0161C256.048 82.273 256.002 82.5377 255.871 82.7635C255.74 82.9894 255.534 83.162 255.288 83.2509L254.974 83.3675L255.146 83.6536C255.263 83.8474 255.324 84.0691 255.324 84.2951V95.265H257.689C258.266 95.2665 258.824 95.4661 259.271 95.8302C259.718 96.1943 260.026 96.7008 260.143 97.2646L260.187 97.4868H263.949C264.465 97.4873 264.96 97.6923 265.325 98.0568C265.69 98.4212 265.896 98.9154 265.896 99.4308L265.896 246.066ZM144.805 83.3231L145.011 83.7286C145.102 83.9035 145.15 84.0978 145.15 84.2951V95.265H154.887V84.2951C154.888 84.0978 154.935 83.9035 155.027 83.7286L155.233 83.3231H144.805ZM154.331 84.2951V94.7096H145.706V84.2951C145.706 84.1547 145.69 84.0149 145.656 83.8785H154.381C154.348 84.0149 154.331 84.1547 154.331 84.2951ZM157.046 83.3231L157.252 83.7286C157.344 83.9035 157.391 84.0978 157.391 84.2951V95.265H167.129V84.2951C167.129 84.0978 167.177 83.9035 167.268 83.7286L167.474 83.3231H157.046ZM166.573 84.2951V94.7096H157.948V84.2951C157.948 84.1547 157.931 84.0149 157.898 83.8785H166.623C166.589 84.0149 166.572 84.1547 166.573 84.2951ZM169.288 83.3231L169.494 83.7286C169.585 83.9035 169.633 84.0978 169.633 84.2951V95.265H179.371V84.2951C179.371 84.0978 179.418 83.9035 179.51 83.7286L179.716 83.3231H169.288ZM178.814 84.2951V94.7096H170.189V84.2951C170.19 84.1547 170.173 84.0149 170.139 83.8785H178.864C178.831 84.0149 178.814 84.1547 178.814 84.2951ZM181.53 83.3231L181.735 83.7286C181.827 83.9035 181.874 84.0978 181.875 84.2951V95.265H191.612V84.2951C191.612 84.0978 191.66 83.9035 191.751 83.7286L191.957 83.3231H181.53ZM191.056 84.2951V94.7096H182.431V84.2951C182.431 84.1547 182.414 84.0149 182.381 83.8785H191.106C191.072 84.0149 191.056 84.1547 191.056 84.2951ZM193.771 83.3231L193.977 83.7286C194.068 83.9035 194.116 84.0978 194.116 84.2951V95.265H203.854V84.2951C203.854 84.0978 203.902 83.9035 203.993 83.7286L204.199 83.3231H193.771ZM203.297 84.2951V94.7096H194.673V84.2951C194.673 84.1547 194.656 84.0149 194.622 83.8785H203.348C203.314 84.0149 203.297 84.1547 203.297 84.2951ZM206.013 83.3231L206.219 83.7286C206.31 83.9035 206.358 84.0978 206.358 84.2951V95.265H216.095V84.2951C216.096 84.0978 216.143 83.9035 216.235 83.7286L216.44 83.3231H206.013ZM215.539 84.2951V94.7096H206.914V84.2951C206.914 84.1547 206.898 84.0149 206.864 83.8785H215.589C215.556 84.0149 215.539 84.1547 215.539 84.2951ZM218.254 83.3231L218.46 83.7286C218.552 83.9035 218.599 84.0978 218.599 84.2951V95.265H228.337V84.2951C228.337 84.0978 228.385 83.9035 228.476 83.7286L228.682 83.3231H218.254ZM227.781 84.2951V94.7096H219.156V84.2951C219.156 84.1547 219.139 84.0149 219.106 83.8785H227.831C227.797 84.0149 227.78 84.1547 227.781 84.2951ZM230.496 83.3231L230.702 83.7286C230.793 83.9035 230.841 84.0978 230.841 84.2951V95.265H240.579V84.2951C240.579 84.0978 240.626 83.9035 240.718 83.7286L240.924 83.3231H230.496ZM240.022 84.2951V94.7096H231.397V84.2951C231.398 84.1547 231.381 84.0149 231.347 83.8785H240.072C240.039 84.0149 240.022 84.1547 240.022 84.2951ZM242.737 83.3231L242.943 83.7286C243.035 83.9035 243.082 84.0978 243.083 84.2951V95.265H252.82V84.2951C252.82 84.0978 252.868 83.9035 252.959 83.7286L253.165 83.3231H242.737ZM252.264 84.2951V94.7096H243.639V84.2951C243.639 84.1547 243.622 84.0149 243.589 83.8785H252.314C252.28 84.0149 252.264 84.1547 252.264 84.2951ZM144.805 83.3231L145.011 83.7286C145.102 83.9035 145.15 84.0978 145.15 84.2951V95.265H154.887V84.2951C154.888 84.0978 154.935 83.9035 155.027 83.7286L155.233 83.3231H144.805ZM154.331 84.2951V94.7096H145.706V84.2951C145.706 84.1547 145.69 84.0149 145.656 83.8785H154.381C154.348 84.0149 154.331 84.1547 154.331 84.2951ZM157.046 83.3231L157.252 83.7286C157.344 83.9035 157.391 84.0978 157.391 84.2951V95.265H167.129V84.2951C167.129 84.0978 167.177 83.9035 167.268 83.7286L167.474 83.3231H157.046ZM166.573 84.2951V94.7096H157.948V84.2951C157.948 84.1547 157.931 84.0149 157.898 83.8785H166.623C166.589 84.0149 166.572 84.1547 166.573 84.2951ZM169.288 83.3231L169.494 83.7286C169.585 83.9035 169.633 84.0978 169.633 84.2951V95.265H179.371V84.2951C179.371 84.0978 179.418 83.9035 179.51 83.7286L179.716 83.3231H169.288ZM178.814 84.2951V94.7096H170.189V84.2951C170.19 84.1547 170.173 84.0149 170.139 83.8785H178.864C178.831 84.0149 178.814 84.1547 178.814 84.2951ZM181.53 83.3231L181.735 83.7286C181.827 83.9035 181.874 84.0978 181.875 84.2951V95.265H191.612V84.2951C191.612 84.0978 191.66 83.9035 191.751 83.7286L191.957 83.3231H181.53ZM191.056 84.2951V94.7096H182.431V84.2951C182.431 84.1547 182.414 84.0149 182.381 83.8785H191.106C191.072 84.0149 191.056 84.1547 191.056 84.2951ZM193.771 83.3231L193.977 83.7286C194.068 83.9035 194.116 84.0978 194.116 84.2951V95.265H203.854V84.2951C203.854 84.0978 203.902 83.9035 203.993 83.7286L204.199 83.3231H193.771ZM203.297 84.2951V94.7096H194.673V84.2951C194.673 84.1547 194.656 84.0149 194.622 83.8785H203.348C203.314 84.0149 203.297 84.1547 203.297 84.2951ZM206.013 83.3231L206.219 83.7286C206.31 83.9035 206.358 84.0978 206.358 84.2951V95.265H216.095V84.2951C216.096 84.0978 216.143 83.9035 216.235 83.7286L216.44 83.3231H206.013ZM215.539 84.2951V94.7096H206.914V84.2951C206.914 84.1547 206.898 84.0149 206.864 83.8785H215.589C215.556 84.0149 215.539 84.1547 215.539 84.2951ZM218.254 83.3231L218.46 83.7286C218.552 83.9035 218.599 84.0978 218.599 84.2951V95.265H228.337V84.2951C228.337 84.0978 228.385 83.9035 228.476 83.7286L228.682 83.3231H218.254ZM227.781 84.2951V94.7096H219.156V84.2951C219.156 84.1547 219.139 84.0149 219.106 83.8785H227.831C227.797 84.0149 227.78 84.1547 227.781 84.2951ZM230.496 83.3231L230.702 83.7286C230.793 83.9035 230.841 84.0978 230.841 84.2951V95.265H240.579V84.2951C240.579 84.0978 240.626 83.9035 240.718 83.7286L240.924 83.3231H230.496ZM240.022 84.2951V94.7096H231.397V84.2951C231.398 84.1547 231.381 84.0149 231.347 83.8785H240.072C240.039 84.0149 240.022 84.1547 240.022 84.2951ZM242.737 83.3231L242.943 83.7286C243.035 83.9035 243.082 84.0978 243.083 84.2951V95.265H252.82V84.2951C252.82 84.0978 252.868 83.9035 252.959 83.7286L253.165 83.3231H242.737ZM252.264 84.2951V94.7096H243.639V84.2951C243.639 84.1547 243.622 84.0149 243.589 83.8785H252.314C252.28 84.0149 252.264 84.1547 252.264 84.2951ZM144.805 83.3231L145.011 83.7286C145.102 83.9035 145.15 84.0978 145.15 84.2951V95.265H154.887V84.2951C154.888 84.0978 154.935 83.9035 155.027 83.7286L155.233 83.3231H144.805ZM154.331 84.2951V94.7096H145.706V84.2951C145.706 84.1547 145.69 84.0149 145.656 83.8785H154.381C154.348 84.0149 154.331 84.1547 154.331 84.2951ZM157.046 83.3231L157.252 83.7286C157.344 83.9035 157.391 84.0978 157.391 84.2951V95.265H167.129V84.2951C167.129 84.0978 167.177 83.9035 167.268 83.7286L167.474 83.3231H157.046ZM166.573 84.2951V94.7096H157.948V84.2951C157.948 84.1547 157.931 84.0149 157.898 83.8785H166.623C166.589 84.0149 166.572 84.1547 166.573 84.2951ZM169.288 83.3231L169.494 83.7286C169.585 83.9035 169.633 84.0978 169.633 84.2951V95.265H179.371V84.2951C179.371 84.0978 179.418 83.9035 179.51 83.7286L179.716 83.3231H169.288ZM178.814 84.2951V94.7096H170.189V84.2951C170.19 84.1547 170.173 84.0149 170.139 83.8785H178.864C178.831 84.0149 178.814 84.1547 178.814 84.2951ZM181.53 83.3231L181.735 83.7286C181.827 83.9035 181.874 84.0978 181.875 84.2951V95.265H191.612V84.2951C191.612 84.0978 191.66 83.9035 191.751 83.7286L191.957 83.3231H181.53ZM191.056 84.2951V94.7096H182.431V84.2951C182.431 84.1547 182.414 84.0149 182.381 83.8785H191.106C191.072 84.0149 191.056 84.1547 191.056 84.2951ZM193.771 83.3231L193.977 83.7286C194.068 83.9035 194.116 84.0978 194.116 84.2951V95.265H203.854V84.2951C203.854 84.0978 203.902 83.9035 203.993 83.7286L204.199 83.3231H193.771ZM203.297 84.2951V94.7096H194.673V84.2951C194.673 84.1547 194.656 84.0149 194.622 83.8785H203.348C203.314 84.0149 203.297 84.1547 203.297 84.2951ZM206.013 83.3231L206.219 83.7286C206.31 83.9035 206.358 84.0978 206.358 84.2951V95.265H216.095V84.2951C216.096 84.0978 216.143 83.9035 216.235 83.7286L216.44 83.3231H206.013ZM215.539 84.2951V94.7096H206.914V84.2951C206.914 84.1547 206.898 84.0149 206.864 83.8785H215.589C215.556 84.0149 215.539 84.1547 215.539 84.2951ZM218.254 83.3231L218.46 83.7286C218.552 83.9035 218.599 84.0978 218.599 84.2951V95.265H228.337V84.2951C228.337 84.0978 228.385 83.9035 228.476 83.7286L228.682 83.3231H218.254ZM227.781 84.2951V94.7096H219.156V84.2951C219.156 84.1547 219.139 84.0149 219.106 83.8785H227.831C227.797 84.0149 227.78 84.1547 227.781 84.2951ZM230.496 83.3231L230.702 83.7286C230.793 83.9035 230.841 84.0978 230.841 84.2951V95.265H240.579V84.2951C240.579 84.0978 240.626 83.9035 240.718 83.7286L240.924 83.3231H230.496ZM240.022 84.2951V94.7096H231.397V84.2951C231.398 84.1547 231.381 84.0149 231.347 83.8785H240.072C240.039 84.0149 240.022 84.1547 240.022 84.2951ZM242.737 83.3231L242.943 83.7286C243.035 83.9035 243.082 84.0978 243.083 84.2951V95.265H252.82V84.2951C252.82 84.0978 252.868 83.9035 252.959 83.7286L253.165 83.3231H242.737ZM252.264 84.2951V94.7096H243.639V84.2951C243.639 84.1547 243.622 84.0149 243.589 83.8785H252.314C252.28 84.0149 252.264 84.1547 252.264 84.2951ZM144.805 83.3231L145.011 83.7286C145.102 83.9035 145.15 84.0978 145.15 84.2951V95.265H154.887V84.2951C154.888 84.0978 154.935 83.9035 155.027 83.7286L155.233 83.3231H144.805ZM154.331 84.2951V94.7096H145.706V84.2951C145.706 84.1547 145.69 84.0149 145.656 83.8785H154.381C154.348 84.0149 154.331 84.1547 154.331 84.2951ZM157.046 83.3231L157.252 83.7286C157.344 83.9035 157.391 84.0978 157.391 84.2951V95.265H167.129V84.2951C167.129 84.0978 167.177 83.9035 167.268 83.7286L167.474 83.3231H157.046ZM166.573 84.2951V94.7096H157.948V84.2951C157.948 84.1547 157.931 84.0149 157.898 83.8785H166.623C166.589 84.0149 166.572 84.1547 166.573 84.2951ZM169.288 83.3231L169.494 83.7286C169.585 83.9035 169.633 84.0978 169.633 84.2951V95.265H179.371V84.2951C179.371 84.0978 179.418 83.9035 179.51 83.7286L179.716 83.3231H169.288ZM178.814 84.2951V94.7096H170.189V84.2951C170.19 84.1547 170.173 84.0149 170.139 83.8785H178.864C178.831 84.0149 178.814 84.1547 178.814 84.2951ZM181.53 83.3231L181.735 83.7286C181.827 83.9035 181.874 84.0978 181.875 84.2951V95.265H191.612V84.2951C191.612 84.0978 191.66 83.9035 191.751 83.7286L191.957 83.3231H181.53ZM191.056 84.2951V94.7096H182.431V84.2951C182.431 84.1547 182.414 84.0149 182.381 83.8785H191.106C191.072 84.0149 191.056 84.1547 191.056 84.2951ZM193.771 83.3231L193.977 83.7286C194.068 83.9035 194.116 84.0978 194.116 84.2951V95.265H203.854V84.2951C203.854 84.0978 203.902 83.9035 203.993 83.7286L204.199 83.3231H193.771ZM203.297 84.2951V94.7096H194.673V84.2951C194.673 84.1547 194.656 84.0149 194.622 83.8785H203.348C203.314 84.0149 203.297 84.1547 203.297 84.2951ZM206.013 83.3231L206.219 83.7286C206.31 83.9035 206.358 84.0978 206.358 84.2951V95.265H216.095V84.2951C216.096 84.0978 216.143 83.9035 216.235 83.7286L216.44 83.3231H206.013ZM215.539 84.2951V94.7096H206.914V84.2951C206.914 84.1547 206.898 84.0149 206.864 83.8785H215.589C215.556 84.0149 215.539 84.1547 215.539 84.2951ZM218.254 83.3231L218.46 83.7286C218.552 83.9035 218.599 84.0978 218.599 84.2951V95.265H228.337V84.2951C228.337 84.0978 228.385 83.9035 228.476 83.7286L228.682 83.3231H218.254ZM227.781 84.2951V94.7096H219.156V84.2951C219.156 84.1547 219.139 84.0149 219.106 83.8785H227.831C227.797 84.0149 227.78 84.1547 227.781 84.2951ZM230.496 83.3231L230.702 83.7286C230.793 83.9035 230.841 84.0978 230.841 84.2951V95.265H240.579V84.2951C240.579 84.0978 240.626 83.9035 240.718 83.7286L240.924 83.3231H230.496ZM240.022 84.2951V94.7096H231.397V84.2951C231.398 84.1547 231.381 84.0149 231.347 83.8785H240.072C240.039 84.0149 240.022 84.1547 240.022 84.2951ZM242.737 83.3231L242.943 83.7286C243.035 83.9035 243.082 84.0978 243.083 84.2951V95.265H252.82V84.2951C252.82 84.0978 252.868 83.9035 252.959 83.7286L253.165 83.3231H242.737ZM252.264 84.2951V94.7096H243.639V84.2951C243.639 84.1547 243.622 84.0149 243.589 83.8785H252.314C252.28 84.0149 252.264 84.1547 252.264 84.2951Z" fill="#3F3D56"/>
<path d="M177.883 131.924H157.366C156.934 131.923 156.52 131.752 156.214 131.447C155.909 131.142 155.737 130.728 155.736 130.297V119.387C155.737 118.956 155.909 118.542 156.214 118.237C156.52 117.932 156.934 117.761 157.366 117.76H177.883C178.315 117.761 178.729 117.932 179.035 118.237C179.34 118.542 179.512 118.956 179.513 119.387V130.297C179.512 130.728 179.34 131.142 179.035 131.447C178.729 131.752 178.315 131.923 177.883 131.924Z" fill="#5D57DE"/>
<path d="M209.104 131.924H188.588C188.155 131.923 187.741 131.752 187.436 131.447C187.13 131.142 186.958 130.728 186.958 130.297V119.387C186.958 118.956 187.13 118.542 187.436 118.237C187.741 117.932 188.155 117.761 188.588 117.76H209.104C209.536 117.761 209.951 117.932 210.256 118.237C210.562 118.542 210.734 118.956 210.734 119.387V130.297C210.734 130.728 210.562 131.142 210.256 131.447C209.951 131.752 209.536 131.923 209.104 131.924Z" fill="#5D57DE"/>
<path d="M240.326 131.924H219.809C219.377 131.923 218.963 131.752 218.657 131.447C218.351 131.142 218.18 130.728 218.179 130.297V119.387C218.18 118.956 218.351 118.542 218.657 118.237C218.963 117.932 219.377 117.761 219.809 117.76H240.326C240.758 117.761 241.172 117.932 241.478 118.237C241.783 118.542 241.955 118.956 241.956 119.387V130.297C241.955 130.728 241.783 131.142 241.478 131.447C241.172 131.752 240.758 131.923 240.326 131.924Z" fill="#5D57DE"/>
<path d="M177.883 168.305H157.366C156.934 168.305 156.52 168.133 156.214 167.828C155.909 167.523 155.737 167.109 155.736 166.678V155.768C155.737 155.337 155.909 154.923 156.214 154.618C156.52 154.313 156.934 154.142 157.366 154.141H177.883C178.315 154.142 178.729 154.313 179.035 154.618C179.34 154.923 179.512 155.337 179.513 155.768V166.678C179.512 167.109 179.34 167.523 179.035 167.828C178.729 168.133 178.315 168.305 177.883 168.305Z" fill="#5D57DE"/>
<path d="M209.104 168.305H188.588C188.155 168.305 187.741 168.133 187.436 167.828C187.13 167.523 186.958 167.109 186.958 166.678V155.768C186.958 155.337 187.13 154.923 187.436 154.618C187.741 154.313 188.155 154.142 188.588 154.141H209.104C209.536 154.142 209.951 154.313 210.256 154.618C210.562 154.923 210.734 155.337 210.734 155.768V166.678C210.734 167.109 210.562 167.523 210.256 167.828C209.951 168.133 209.536 168.305 209.104 168.305Z" fill="#5D57DE"/>
<path d="M240.326 168.305H219.809C219.377 168.305 218.963 168.133 218.657 167.828C218.351 167.523 218.18 167.109 218.179 166.678V155.768C218.18 155.337 218.351 154.923 218.657 154.618C218.963 154.313 219.377 154.142 219.809 154.141H240.326C240.758 154.142 241.172 154.313 241.478 154.618C241.783 154.923 241.955 155.337 241.956 155.768V166.678C241.955 167.109 241.783 167.523 241.478 167.828C241.172 168.133 240.758 168.305 240.326 168.305Z" fill="#5D57DE"/>
<path d="M177.883 204.686H157.366C156.934 204.686 156.52 204.514 156.214 204.209C155.909 203.904 155.737 203.491 155.736 203.059V192.149C155.737 191.718 155.909 191.305 156.214 191C156.52 190.695 156.934 190.523 157.366 190.522H177.883C178.315 190.523 178.729 190.695 179.035 191C179.34 191.305 179.512 191.718 179.513 192.149V203.059C179.512 203.491 179.34 203.904 179.035 204.209C178.729 204.514 178.315 204.686 177.883 204.686Z" fill="#5D57DE"/>
<path d="M209.104 204.686H188.588C188.155 204.686 187.741 204.514 187.436 204.209C187.13 203.904 186.958 203.491 186.958 203.059V192.149C186.958 191.718 187.13 191.305 187.436 191C187.741 190.695 188.155 190.523 188.588 190.522H209.104C209.536 190.523 209.951 190.695 210.256 191C210.562 191.305 210.734 191.718 210.734 192.149V203.059C210.734 203.491 210.562 203.904 210.256 204.209C209.951 204.514 209.536 204.686 209.104 204.686Z" fill="#5D57DE"/>
<path d="M240.326 204.686H219.809C219.377 204.686 218.963 204.514 218.657 204.209C218.351 203.904 218.18 203.491 218.179 203.059V192.149C218.18 191.718 218.351 191.305 218.657 191C218.963 190.695 219.377 190.523 219.809 190.522H240.326C240.758 190.523 241.172 190.695 241.478 191C241.783 191.305 241.955 191.718 241.956 192.149V203.059C241.955 203.491 241.783 203.904 241.478 204.209C241.172 204.514 240.758 204.686 240.326 204.686Z" fill="#5D57DE"/>
<path d="M174.561 133.324H150.794C150.22 133.323 149.669 133.095 149.263 132.69C148.857 132.284 148.628 131.735 148.628 131.161V118.523C148.628 117.95 148.857 117.4 149.263 116.994C149.669 116.589 150.22 116.361 150.794 116.36H174.561C175.136 116.361 175.686 116.589 176.092 116.994C176.498 117.4 176.727 117.95 176.728 118.523V131.161C176.727 131.735 176.498 132.284 176.092 132.69C175.686 133.095 175.136 133.323 174.561 133.324ZM150.794 116.916C150.367 116.916 149.958 117.086 149.656 117.387C149.354 117.688 149.184 118.097 149.184 118.523V131.161C149.184 131.587 149.354 131.996 149.656 132.297C149.958 132.598 150.367 132.768 150.794 132.768H174.561C174.988 132.768 175.397 132.598 175.699 132.297C176.001 131.996 176.171 131.587 176.171 131.161V118.523C176.171 118.097 176.001 117.688 175.699 117.387C175.397 117.086 174.988 116.916 174.561 116.916H150.794Z" fill="#3F3D56"/>
<path d="M210.73 133.324H186.962C186.388 133.323 185.837 133.095 185.431 132.69C185.025 132.284 184.796 131.735 184.796 131.161V118.523C184.796 117.95 185.025 117.4 185.431 116.994C185.837 116.589 186.388 116.361 186.962 116.36H210.73C211.304 116.361 211.855 116.589 212.261 116.994C212.667 117.4 212.895 117.95 212.896 118.523V131.161C212.895 131.735 212.667 132.284 212.261 132.69C211.855 133.095 211.304 133.323 210.73 133.324ZM186.962 116.916C186.535 116.916 186.126 117.086 185.824 117.387C185.523 117.688 185.353 118.097 185.352 118.523V131.161C185.353 131.587 185.523 131.996 185.824 132.297C186.126 132.598 186.535 132.768 186.962 132.768H210.73C211.156 132.768 211.566 132.598 211.867 132.297C212.169 131.996 212.339 131.587 212.339 131.161V118.523C212.339 118.097 212.169 117.688 211.867 117.387C211.566 117.086 211.156 116.916 210.73 116.916H186.962Z" fill="#3F3D56"/>
<path d="M246.898 133.324H223.13C222.556 133.323 222.006 133.095 221.599 132.69C221.193 132.284 220.965 131.735 220.964 131.161V118.523C220.965 117.95 221.193 117.4 221.599 116.994C222.006 116.589 222.556 116.361 223.13 116.36H246.898C247.472 116.361 248.023 116.589 248.429 116.994C248.835 117.4 249.064 117.95 249.064 118.523V131.161C249.064 131.735 248.835 132.284 248.429 132.69C248.023 133.095 247.472 133.323 246.898 133.324ZM223.13 116.916C222.704 116.916 222.294 117.086 221.993 117.387C221.691 117.688 221.521 118.097 221.521 118.523V131.161C221.521 131.587 221.691 131.996 221.993 132.297C222.294 132.598 222.704 132.768 223.13 132.768H246.898C247.325 132.768 247.734 132.598 248.036 132.297C248.338 131.996 248.507 131.587 248.508 131.161V118.523C248.507 118.097 248.338 117.688 248.036 117.387C247.734 117.086 247.325 116.916 246.898 116.916H223.13Z" fill="#3F3D56"/>
<path d="M174.561 169.705H150.794C150.22 169.704 149.669 169.476 149.263 169.071C148.857 168.665 148.628 168.116 148.628 167.542V154.904C148.628 154.331 148.857 153.781 149.263 153.376C149.669 152.97 150.22 152.742 150.794 152.741H174.561C175.136 152.742 175.686 152.97 176.092 153.376C176.498 153.781 176.727 154.331 176.728 154.904V167.542C176.727 168.116 176.498 168.665 176.092 169.071C175.686 169.476 175.136 169.704 174.561 169.705ZM150.794 153.297C150.367 153.297 149.958 153.467 149.656 153.768C149.354 154.069 149.184 154.478 149.184 154.904V167.542C149.184 167.968 149.354 168.377 149.656 168.678C149.958 168.979 150.367 169.149 150.794 169.149H174.561C174.988 169.149 175.397 168.979 175.699 168.678C176.001 168.377 176.171 167.968 176.171 167.542V154.904C176.171 154.478 176.001 154.069 175.699 153.768C175.397 153.467 174.988 153.297 174.561 153.297H150.794Z" fill="#3F3D56"/>
<path d="M210.73 169.705H186.962C186.388 169.704 185.837 169.476 185.431 169.071C185.025 168.665 184.796 168.116 184.796 167.542V154.904C184.796 154.331 185.025 153.781 185.431 153.376C185.837 152.97 186.388 152.742 186.962 152.741H210.73C211.304 152.742 211.855 152.97 212.261 153.376C212.667 153.781 212.895 154.331 212.896 154.904V167.542C212.895 168.116 212.667 168.665 212.261 169.071C211.855 169.476 211.304 169.704 210.73 169.705ZM186.962 153.297C186.535 153.297 186.126 153.467 185.824 153.768C185.523 154.069 185.353 154.478 185.352 154.904V167.542C185.353 167.968 185.523 168.377 185.824 168.678C186.126 168.979 186.535 169.149 186.962 169.149H210.73C211.156 169.149 211.566 168.979 211.867 168.678C212.169 168.377 212.339 167.968 212.339 167.542V154.904C212.339 154.478 212.169 154.069 211.867 153.768C211.566 153.467 211.156 153.297 210.73 153.297H186.962Z" fill="#3F3D56"/>
<path d="M246.898 169.705H223.13C222.556 169.704 222.006 169.476 221.599 169.071C221.193 168.665 220.965 168.116 220.964 167.542V154.904C220.965 154.331 221.193 153.781 221.599 153.376C222.006 152.97 222.556 152.742 223.13 152.741H246.898C247.472 152.742 248.023 152.97 248.429 153.376C248.835 153.781 249.064 154.331 249.064 154.904V167.542C249.064 168.116 248.835 168.665 248.429 169.071C248.023 169.476 247.472 169.704 246.898 169.705ZM223.13 153.297C222.704 153.297 222.294 153.467 221.993 153.768C221.691 154.069 221.521 154.478 221.521 154.904V167.542C221.521 167.968 221.691 168.377 221.993 168.678C222.294 168.979 222.704 169.149 223.13 169.149H246.898C247.325 169.149 247.734 168.979 248.036 168.678C248.338 168.377 248.507 167.968 248.508 167.542V154.904C248.507 154.478 248.338 154.069 248.036 153.768C247.734 153.467 247.325 153.297 246.898 153.297H223.13Z" fill="#3F3D56"/>
<path d="M174.561 206.086H150.794C150.22 206.085 149.669 205.857 149.263 205.452C148.857 205.046 148.628 204.497 148.628 203.923V191.285C148.628 190.712 148.857 190.162 149.263 189.757C149.669 189.351 150.22 189.123 150.794 189.123H174.561C175.136 189.123 175.686 189.351 176.092 189.757C176.498 190.162 176.727 190.712 176.728 191.285V203.923C176.727 204.497 176.498 205.046 176.092 205.452C175.686 205.857 175.136 206.085 174.561 206.086ZM150.794 189.678C150.367 189.678 149.958 189.848 149.656 190.149C149.354 190.451 149.184 190.859 149.184 191.285V203.923C149.184 204.349 149.354 204.758 149.656 205.059C149.958 205.361 150.367 205.53 150.794 205.53H174.561C174.988 205.53 175.397 205.361 175.699 205.059C176.001 204.758 176.171 204.349 176.171 203.923V191.285C176.171 190.859 176.001 190.451 175.699 190.149C175.397 189.848 174.988 189.678 174.561 189.678H150.794Z" fill="#3F3D56"/>
<path d="M210.73 206.086H186.962C186.388 206.085 185.837 205.857 185.431 205.452C185.025 205.046 184.796 204.497 184.796 203.923V191.285C184.796 190.712 185.025 190.162 185.431 189.757C185.837 189.351 186.388 189.123 186.962 189.123H210.73C211.304 189.123 211.855 189.351 212.261 189.757C212.667 190.162 212.895 190.712 212.896 191.285V203.923C212.895 204.497 212.667 205.046 212.261 205.452C211.855 205.857 211.304 206.085 210.73 206.086ZM186.962 189.678C186.535 189.678 186.126 189.848 185.824 190.149C185.523 190.451 185.353 190.859 185.352 191.285V203.923C185.353 204.349 185.523 204.758 185.824 205.059C186.126 205.361 186.535 205.53 186.962 205.53H210.73C211.156 205.53 211.566 205.361 211.867 205.059C212.169 204.758 212.339 204.349 212.339 203.923V191.285C212.339 190.859 212.169 190.451 211.867 190.149C211.566 189.848 211.156 189.678 210.73 189.678H186.962Z" fill="#3F3D56"/>
<path d="M246.898 206.086H223.13C222.556 206.085 222.006 205.857 221.599 205.452C221.193 205.046 220.965 204.497 220.964 203.923V191.285C220.965 190.712 221.193 190.162 221.599 189.757C222.006 189.351 222.556 189.123 223.13 189.123H246.898C247.472 189.123 248.023 189.351 248.429 189.757C248.835 190.162 249.064 190.712 249.064 191.285V203.923C249.064 204.497 248.835 205.046 248.429 205.452C248.023 205.857 247.472 206.085 246.898 206.086ZM223.13 189.678C222.704 189.678 222.294 189.848 221.993 190.149C221.691 190.451 221.521 190.859 221.521 191.285V203.923C221.521 204.349 221.691 204.758 221.993 205.059C222.294 205.361 222.704 205.53 223.13 205.53H246.898C247.325 205.53 247.734 205.361 248.036 205.059C248.338 204.758 248.507 204.349 248.508 203.923V191.285C248.507 190.859 248.338 190.451 248.036 190.149C247.734 189.848 247.325 189.678 246.898 189.678H223.13Z" fill="#3F3D56"/>
<path d="M343.722 248.982H63.2782C63.2044 248.982 63.1337 248.953 63.0815 248.901C63.0293 248.849 63 248.778 63 248.705C63 248.631 63.0293 248.56 63.0815 248.508C63.1337 248.456 63.2044 248.427 63.2782 248.427H343.722C343.796 248.427 343.866 248.456 343.919 248.508C343.971 248.56 344 248.631 344 248.705C344 248.778 343.971 248.849 343.919 248.901C343.866 248.953 343.796 248.982 343.722 248.982Z" fill="#3F3D56"/>
<path d="M212.896 222.102C212.904 221.468 212.659 220.857 212.215 220.404C211.772 219.95 211.166 219.691 210.531 219.683H198.846V248.427H212.896V222.102Z" fill="#3F3D56"/>
<path d="M199.124 248.149H184.518V222.183C184.518 221.483 184.797 220.812 185.293 220.318C185.788 219.823 186.46 219.545 187.161 219.544H199.124V248.149ZM185.074 247.594H198.568V220.1H187.161C186.608 220.1 186.077 220.32 185.686 220.71C185.295 221.101 185.075 221.63 185.074 222.183V247.594Z" fill="#3F3D56"/>
<path d="M186.326 235.791C186.787 235.791 187.161 235.418 187.161 234.958C187.161 234.498 186.787 234.125 186.326 234.125C185.865 234.125 185.491 234.498 185.491 234.958C185.491 235.418 185.865 235.791 186.326 235.791Z" fill="#3F3D56"/>
</g>
<defs>
<clipPath id="clip0_213_9">
<rect width="281" height="214" fill="white" transform="translate(63 35)"/>
</clipPath>
</defs>
</svg>
